<svg xmlns="http://www.w3.org/2000/svg" viewBox="0 0 416.1 416.09"><defs><style>.cls-1{fill:none;}.cls-2{fill:#dc3745;stroke:#dc3745;stroke-miterlimit:10;stroke-width:7px;}</style></defs><g id="Layer_2" data-name="Layer 2"><g id="Layer_1-2" data-name="Layer 1"><rect class="cls-1" x="0.01" width="416.09" height="416.09"/><path class="cls-2" d="M0,361.69H125.79v-4.06C98.32,326.91,93.61,303.05,94.5,273.1c.09-3.15-49,5.82-52.44,5.84-11.09,0-14.34,12.61-22.47,9.8-10.69-3.68-10.5-38.46-3.05-41.88,4.24-1.94,8.6,4.81,18.82,12.7,4.53,3.49,58.81,2.12,60.06-2.7,5.7-22.08,10.28-33.59,24.27-51.17,4.92-6.2-51.12-54.07-56.3-57.64-6.62-4.57-14.68.16-18.23-6.43C39.1,130.35,68,109.42,75.6,114.46c3.85,2.56,1.46,17.79,4.83,23.09,5,7.87,49.82,56.45,53.77,53.4,17.62-13.59,25.35-18,47.31-24.19,2.08-.59-10.45-73-16.17-80.07s-17-12.59-16.24-17.91c2.28-15.91,42.14-17.85,42.49-9.56.41,9.73-8.09,18.47-9.17,25.89-.93,6.43,9.57,79.2,15.7,78.67,25.75-2.23,47,2.64,66.21,13,4.18,2.25,43.57-58,39.31-68-3.69-8.64-4.68-21.25,3.49-22,12-1.15,33.13,15,31.15,22.61-.69,2.68-3.58,6.12-7,7.74-4.53,2.16-9.85,2.42-12.72,4.19-5.23,3.22-42.06,62.84-39,65.08,13.78,10,21.75,20.09,29.83,32.78,2.9,4.56,42.14-20.37,44.27-25.24,6.62-15.1,8.26-17.34,11.83-17.64,14.76-1.27,14.71,28,9.42,33.25-1.15,1.14-1.59,1.71-3.82,1.77-5.35.16-7.73-3.1-11.32-4.06-5.89-1.56-45,21.56-43.07,26,8,18.67,11.66,36.46,8.37,63.11-.7,5.69,46.46,4.64,49,4,10.71-2.78,18.35-10.73,21.35-9.16,7.13,3.74,1.53,42.52-11.58,40.74a10.44,10.44,0,0,1-6.1-2.92,46.64,46.64,0,0,1-9.06-11.73c-2.9-6-45.93-9.64-46.93-5.46C318.58,325,310.58,341.06,299,354.25c-1.8,2.06,3.67,6.71,3.67,6.71H416.1Z"/></g></g></svg>