<svg width="757" height="758" xmlns="http://www.w3.org/2000/svg" xmlns:xlink="http://www.w3.org/1999/xlink" overflow="hidden"><defs><clipPath id="clip0"><rect x="-5" y="-1" width="757" height="758"/></clipPath></defs><g clip-path="url(#clip0)" transform="translate(5 1)"><path d="M445.558 87.429 569.253 211.123 416.316 364.06 292.622 240.366Z" stroke="#2F528F" stroke-width="1.33333" stroke-miterlimit="8" fill="#FFFFFF" fill-rule="evenodd"/><path d="M453.67 102.133 566.008 214.288 565.948 214.377 453.581 102.193ZM231.523 96 447.378 96 453.581 102.193 453.335 102.359C450.422 105.267 448.62 109.285 448.62 113.722L448.62 203.302C448.62 212.177 455.827 219.373 464.718 219.373L554.37 219.373C558.816 219.373 562.84 217.574 565.753 214.665L565.948 214.377 570 218.422 570 608.561C570 636.97 546.932 660 518.477 660L231.523 660C203.068 660 180 636.97 180 608.561L180 147.439C180 119.03 203.068 96 231.523 96Z" stroke="#000000" stroke-width="24.3333" stroke-miterlimit="8" fill="#FFFFFF" fill-rule="evenodd"/><path d="M0 0 74.08 36.425" stroke="#000000" stroke-width="24.3333" stroke-linecap="round" stroke-miterlimit="8" fill="#FFFFFF" fill-rule="evenodd" transform="matrix(-1 0 0 1 297.08 392)"/><path d="M297.08 464.425 223 428" stroke="#000000" stroke-width="24.3333" stroke-linecap="round" stroke-miterlimit="8" fill="#FFFFFF" fill-rule="evenodd"/><path d="M446 392 520.08 428.425" stroke="#000000" stroke-width="24.3333" stroke-linecap="round" stroke-miterlimit="8" fill="#FFFFFF" fill-rule="evenodd"/><path d="M0 0 74.08 36.425" stroke="#000000" stroke-width="24.3333" stroke-linecap="round" stroke-miterlimit="8" fill="#FFFFFF" fill-rule="evenodd" transform="matrix(1 0 0 -1 446 464.425)"/><path d="M0 0 98.0338 224.333" stroke="#000000" stroke-width="24.3333" stroke-linecap="round" stroke-miterlimit="8" fill="#FFFFFF" fill-rule="evenodd" transform="matrix(-1 0 0 1 424.034 316)"/></g></svg>