<svg width="757" height="758" xmlns="http://www.w3.org/2000/svg" xmlns:xlink="http://www.w3.org/1999/xlink" overflow="hidden"><defs><clipPath id="clip0"><rect x="-2" y="-1" width="757" height="758"/></clipPath></defs><g clip-path="url(#clip0)" transform="translate(2 1)"><path d="M113 623.833 623.417 623.833 623.417 648.167 113 648.167ZM611.251 611.667 659.917 636 611.251 660.333Z"/><path d="M285 319 423.667 392.333" stroke="#548235" stroke-width="24.3333" stroke-linecap="round" stroke-miterlimit="8" fill="none" fill-rule="evenodd"/><path d="M0 0 198.556 186.667" stroke="#548235" stroke-width="24.3333" stroke-linecap="round" stroke-miterlimit="8" fill="none" fill-rule="evenodd" transform="matrix(1 0 0 -1 424 391.667)"/><path d="M121 242 312.423 458" stroke="#BF9000" stroke-width="24.3333" stroke-linecap="round" stroke-miterlimit="8" fill="none" fill-rule="evenodd"/><path d="M312 458 546.667 495.333" stroke="#BF9000" stroke-width="24.3333" stroke-linecap="round" stroke-miterlimit="8" fill="none" fill-rule="evenodd"/><path d="M547 495 624.333 553.208" stroke="#BF9000" stroke-width="24.3333" stroke-linecap="round" stroke-miterlimit="8" fill="none" fill-rule="evenodd"/><path d="M0 0 164.756 162.667" stroke="#548235" stroke-width="24.3333" stroke-linecap="round" stroke-miterlimit="8" fill="none" fill-rule="evenodd" transform="matrix(1 0 0 -1 121 481.667)"/><path d="M12.1667-2.31472e-06 12.1668 515.334-12.1666 515.334-12.1667 2.31472e-06ZM24.3334 503.167 0.000104987 551.834-24.3332 503.167Z" transform="matrix(1 0 0 -1 121 647.834)"/></g></svg>