<svg width="757" height="758" xmlns="http://www.w3.org/2000/svg" xmlns:xlink="http://www.w3.org/1999/xlink" overflow="hidden"><defs><clipPath id="clip0"><rect x="-2" y="-1" width="757" height="758"/></clipPath></defs><g clip-path="url(#clip0)" transform="translate(2 1)"><path d="M374 232 565 377.945 565 660 433.325 660 433.325 525.771C433.325 514.828 424.471 505.958 413.55 505.958L334.45 505.958C323.529 505.958 314.675 514.828 314.675 525.771L314.675 660 183 660 183 377.945Z" fill="#F6BB00" fill-rule="evenodd"/><path d="M373.653 135 374 135.455 374.347 135 438.751 184.135 438.751 167.986 528.51 167.986 528.51 251.689 527.3 251.689 618 320.884 582.843 367 374 207.672 165.157 367 130 320.884Z" fill="#C00000" fill-rule="evenodd"/></g></svg>