<svg width="758" height="758" xmlns="http://www.w3.org/2000/svg" xmlns:xlink="http://www.w3.org/1999/xlink" overflow="hidden"><defs><clipPath id="clip0"><rect x="-1" y="-1" width="758" height="758"/></clipPath></defs><g clip-path="url(#clip0)" transform="translate(1 1)"><path d="M219 436.25 219 436.25 232.5 425.5C232.736 425.314 233.019 425.192 233.25 425 233.522 424.774 233.721 424.467 234 424.25 234.712 423.697 235.5 423.25 236.25 422.75L237 422.25 237.75 421.75C237.833 421.5 237.882 421.236 238 421 238.348 420.304 238.697 420.053 239.25 419.5 239.333 419.25 239.314 418.936 239.5 418.75 239.686 418.564 239.987 418.5 240.25 418.5 240.594 418.5 240.92 418.656 241.25 418.75 242.155 419.009 241.929 418.952 242.75 419.5 242.917 419.75 243.058 420.019 243.25 420.25 243.748 420.847 244.857 421.786 245.5 422 246.535 422.345 246.031 422.104 247 422.75 247.833 424 247.25 423.333 249 424.5L249.75 425C250.577 427.481 249.189 423.691 250.75 426.5 251.006 426.961 251.083 427.5 251.25 428 251.333 428.25 251.354 428.531 251.5 428.75L252 429.5C252.614 431.341 252.656 430.722 252.25 432.75 252.198 433.008 252.083 433.25 252 433.5 252.083 433.917 252.039 434.381 252.25 434.75 252.399 435.011 252.769 435.058 253 435.25 253.272 435.476 253.471 435.783 253.75 436 254.224 436.369 255.25 437 255.25 437 255.417 437.25 255.538 437.538 255.75 437.75 255.963 437.963 256.312 438.015 256.5 438.25 256.665 438.456 256.632 438.764 256.75 439 256.885 439.269 257.083 439.5 257.25 439.75 257.417 440.25 257.622 440.739 257.75 441.25 257.833 441.583 257.901 441.921 258 442.25 258.002 442.258 258.624 444.121 258.75 444.5L259 445.25C259.083 445.5 259.104 445.781 259.25 446 259.417 446.25 259.551 446.525 259.75 446.75 260.22 447.279 261.25 448.25 261.25 448.25 262.162 450.986 260.708 446.842 262 449.75 262.777 451.498 262.301 450.954 262.75 452.75 263.74 456.71 262.846 451.827 263.5 455.75 263.417 456.25 263.41 456.769 263.25 457.25 263.155 457.535 262.885 457.731 262.75 458 262.632 458.236 262.646 458.531 262.5 458.75 262.304 459.044 261.976 459.228 261.75 459.5 260.011 461.588 262.69 458.81 260.5 461 260.417 461.25 260.378 461.52 260.25 461.75 259.958 462.275 259.25 463.25 259.25 463.25 258.338 465.986 259.792 461.842 258.5 464.75 257.847 466.219 257.917 467.084 257.5 468.75L257 470.75C257.115 471.557 257.251 473.251 257.75 474L258.75 475.5C259.661 478.234 258.208 474.094 259.5 477 259.714 477.482 259.833 478 260 478.5 260.083 478.75 260.186 478.994 260.25 479.25L260.75 481.25C259.976 488.211 260.965 479.532 260.25 485.25 260.157 485.999 260.1 486.752 260 487.5 259.933 488.003 259.841 488.501 259.75 489 259.674 489.418 259.56 489.829 259.5 490.25 259.02 493.61 259.521 491.418 259 493.5 258.624 502.895 259.274 497.266 258.5 500.75 258.408 501.165 258.324 501.582 258.25 502 258.074 502.998 257.75 505 257.75 505 257.667 506.083 257.608 507.169 257.5 508.25 257.441 508.836 257.301 509.413 257.25 510 256.8 515.172 257.225 512.46 256.75 516.5 256.681 517.085 256.616 517.672 256.5 518.25 256.365 518.924 256.135 519.576 256 520.25 255.683 521.837 255.853 521.088 255.5 522.5 255.384 523.897 255.375 525.374 255 526.75 254.861 527.258 254.667 527.75 254.5 528.25L254.25 529C254.167 529.25 254.219 529.604 254 529.75 253.031 530.396 253.535 530.155 252.5 530.5 252 530.333 251.439 530.292 251 530L248.75 528.5C248.5 528.333 248.285 528.095 248 528L246.5 527.5 245.75 527.25C245.25 526.917 244.82 526.44 244.25 526.25L242.75 525.75C242.083 525.833 241.414 525.898 240.75 526 239.524 526.189 239.62 526.251 238.5 526.5 238.13 526.582 236.947 526.752 236.5 527 235.975 527.292 235.5 527.667 235 528L234.25 528.5 233.5 529C232.905 530.785 233.439 530.208 232.25 531 232.167 531.333 232.075 531.665 232 532 231.908 532.415 231.853 532.838 231.75 533.25 231.686 533.506 231.583 533.75 231.5 534 231.192 536.773 231.489 535.535 230.75 537.75 230.667 538 230.686 538.314 230.5 538.5L229.75 539.25C229.387 540.34 229.41 540.708 228.75 541.5 228.524 541.772 228.226 541.979 228 542.25 227.808 542.481 227.735 542.812 227.5 543 227.294 543.165 226.986 543.132 226.75 543.25 226.481 543.384 226.269 543.616 226 543.75 223.93 544.785 226.649 543.067 224.5 544.5 224 544.333 223.439 544.292 223 544L221.5 543 220.5 541.5C220.333 541.25 220.285 540.845 220 540.75L219.25 540.5C219 540.25 218.779 539.967 218.5 539.75 218.026 539.381 217.425 539.175 217 538.75 216.75 538.5 216.476 538.272 216.25 538 216.058 537.769 215.963 537.463 215.75 537.25 215.538 537.038 215.25 536.917 215 536.75 214.833 536.5 214.713 536.213 214.5 536 214.288 535.788 213.909 535.755 213.75 535.5 213.471 535.053 213.417 534.5 213.25 534L212.75 532.5C212.667 532.25 212.646 531.969 212.5 531.75L211.5 530.25C211.333 530 211.095 529.785 211 529.5L210.5 528 209.5 525 209.25 524.25 209 523.5C209.083 522.583 209.187 521.668 209.25 520.75 209.353 519.251 209.328 517.742 209.5 516.25 209.579 515.567 209.783 514.902 210 514.25L210.5 512.75C210.583 512 210.671 511.25 210.75 510.5 210.838 509.667 210.902 508.832 211 508 211.069 507.415 211.095 506.819 211.25 506.25 211.348 505.891 211.603 505.593 211.75 505.25 211.854 505.008 211.882 504.736 212 504.5 212.348 503.804 212.697 503.553 213.25 503L214.5 499.25 215 497.75 215.25 497C215.167 495.917 215.17 494.823 215 493.75 214.918 493.229 214.628 492.761 214.5 492.25 214.417 491.917 214.349 491.579 214.25 491.25 214.099 490.745 213.917 490.25 213.75 489.75 213.667 489.5 213.686 489.186 213.5 489 213.25 488.75 212.976 488.522 212.75 488.25 212.558 488.019 212.476 487.698 212.25 487.5 211.192 486.574 211.03 486.593 210 486.25 209.056 484.834 208.676 485.03 209.25 483.5 209.356 483.219 209.515 482.938 209.75 482.75 209.956 482.585 210.25 482.583 210.5 482.5 211.695 478.916 210.507 482.929 211.25 475.75 211.321 475.066 211.75 473.75 211.75 473.75 211.667 471.667 211.639 469.58 211.5 467.5 211.483 467.248 211.208 465.874 211 465.5 210.708 464.975 210 464 210 464 209.917 463.75 209.868 463.486 209.75 463.25 209.616 462.981 209.372 462.775 209.25 462.5 208.06 459.822 209.382 461.948 208.25 460.25 208.167 460 208.118 459.736 208 459.5 207.27 458.039 207.669 459.466 207.25 458 207.156 457.67 207.099 457.329 207 457 206.773 456.243 206.5 455.5 206.25 454.75L206 454C205.917 453.75 205.896 453.469 205.75 453.25L204.75 451.75 204.25 451C203.805 450.333 203.667 450.018 203 449.5 202.526 449.131 201.5 448.5 201.5 448.5 200.872 446.615 201.719 448.938 200.75 447 200.026 445.553 201.172 446.922 199.75 445.5 199.121 443.615 200.043 445.866 198.75 444.25 198.586 444.044 198.583 443.75 198.5 443.5 198.583 443 198.59 442.481 198.75 442 198.957 441.379 199.613 440.965 200 440.5 200.87 439.456 200.019 439.91 201.25 439.5 202.167 439.583 203.089 439.62 204 439.75 204.261 439.787 204.487 440 204.75 440 206.585 440 208.417 439.833 210.25 439.75L212.25 439.25C212.583 439.167 212.908 439.031 213.25 439L219 436.25Z" stroke="#000000" stroke-width="15.3333" stroke-miterlimit="8" fill="#FFFFFF" fill-rule="evenodd"/><path d="M423.543 412.602 423.543 412.602C426.55 404.584 429.625 396.591 432.565 388.548 433.079 387.139 433.296 384.889 433.567 383.536 433.702 382.861 433.87 382.191 434.068 381.532 434.494 380.114 434.922 378.172 436.073 377.022 436.499 376.596 437.114 376.405 437.577 376.019 438.121 375.566 438.461 374.86 439.08 374.516 440.004 374.003 441.085 373.848 442.087 373.514L443.591 373.013C448.339 373.962 447.76 374.064 455.118 373.013 455.715 372.927 456.121 372.344 456.622 372.01 456.789 371.509 456.867 370.969 457.123 370.507 457.708 369.454 459.128 367.5 459.128 367.5 459.424 367.542 463.186 367.866 464.14 368.502 464.73 368.895 465.099 369.552 465.643 370.006 466.106 370.391 466.646 370.674 467.147 371.008 469.82 375.017 466.311 370.172 469.653 373.514 470.079 373.94 470.202 374.621 470.655 375.017 472.776 376.873 473.101 376.834 475.166 377.523L493.71 377.022C494.868 376.968 497.976 376.227 499.223 376.019 500.389 375.825 501.562 375.685 502.732 375.518 506.661 374.209 506.168 374.168 513.257 375.518 513.953 375.651 514.259 376.52 514.76 377.022 515.242 378.466 516.441 380.058 515.261 381.532 514.885 382.002 514.259 382.2 513.758 382.534 511.92 385.29 513.758 382.952 511.252 385.04 507.393 388.255 511.978 385.057 508.245 387.545 508.078 388.047 508 388.587 507.744 389.049 507.159 390.102 505.739 392.056 505.739 392.056 505.572 392.557 505.238 393.031 505.238 393.559 505.238 394.248 505.55 394.901 505.739 395.564 505.884 396.071 505.81 396.76 506.24 397.067 507.1 397.681 508.245 397.735 509.247 398.069L513.758 399.573C514.259 399.74 514.822 399.781 515.261 400.074 517.644 401.662 516.194 400.886 519.772 402.078L521.276 402.579C521.777 402.914 522.241 403.312 522.779 403.582 525.04 404.712 523.632 403.29 525.786 405.085 526.331 405.539 526.67 406.244 527.29 406.589 528.214 407.102 529.295 407.257 530.297 407.591L533.304 408.593 537.815 410.096 539.319 410.598C539.82 410.932 540.284 411.33 540.822 411.6 541.295 411.836 541.864 411.844 542.326 412.101 547.496 414.973 543.435 413.473 546.837 414.607 548.689 417.385 546.779 415.187 549.343 416.611 550.396 417.196 551.347 417.948 552.35 418.616 552.851 418.95 553.282 419.427 553.853 419.618L556.86 420.62C560.747 423.211 558.725 422.244 562.875 423.627L564.378 424.128 565.882 424.629C566.383 424.963 566.847 425.362 567.386 425.632 567.858 425.868 568.427 425.876 568.889 426.133 569.942 426.718 570.753 427.756 571.896 428.137L576.407 429.641 580.918 431.144 582.421 431.645C582.922 431.979 583.374 432.403 583.925 432.647 584.89 433.077 586.932 433.65 586.932 433.65 587.433 433.984 587.897 434.383 588.436 434.652 590.957 435.912 589.786 433.998 592.946 437.158 593.448 437.659 593.891 438.226 594.45 438.661 595.401 439.401 596.455 439.997 597.457 440.666 597.958 441 598.535 441.242 598.961 441.668 600.838 443.545 599.792 442.947 601.968 443.672 602.469 444.174 602.912 444.741 603.471 445.176 604.422 445.915 605.476 446.512 606.479 447.18 606.98 447.514 607.556 447.757 607.982 448.183 609.912 450.112 608.896 449.293 610.989 450.688 611.323 451.189 611.566 451.766 611.992 452.192 612.418 452.618 613.119 452.724 613.495 453.194 613.825 453.606 613.76 454.225 613.996 454.697 615.94 458.584 614.24 453.925 615.5 457.704 615.333 461.546 615.255 465.393 614.999 469.23 614.888 470.895 614.5 473.065 613.996 474.743 613.693 475.755 613.58 476.87 612.994 477.749L611.992 479.253C611.825 479.754 612.008 480.653 611.49 480.756 607.934 481.467 605.835 480.042 603.973 477.248L601.968 474.242 600.965 472.738C599.138 467.256 602.052 475.559 599.462 469.731 599.033 468.766 598.794 467.727 598.459 466.725L596.956 462.214C596.434 460.648 595.927 458.689 594.45 457.704L591.443 455.7C590.942 455.366 590.511 454.888 589.939 454.697L586.932 453.695C585.094 453.862 583.236 453.876 581.419 454.196 580.378 454.38 579.448 454.991 578.412 455.198L575.906 455.7C574.476 455.541 571.571 455.537 569.891 454.697 569.353 454.428 568.889 454.029 568.388 453.695 567.157 451.85 565.43 450.865 566.884 448.684 567.218 448.183 567.887 448.016 568.388 447.681L565.381 446.679 563.877 446.178C561.705 446.345 559.513 446.34 557.362 446.679 556.318 446.844 555.357 447.347 554.355 447.681L552.851 448.183C552.35 448.684 551.892 449.232 551.347 449.686 550.885 450.072 550.24 450.235 549.844 450.688 549.05 451.595 548.507 452.693 547.839 453.695 547.446 454.285 546.837 454.697 546.335 455.198 544.77 459.893 547.334 452.949 544.331 458.205 543.989 458.803 544.019 459.548 543.829 460.21 542.529 464.76 544.334 457.186 542.827 464.72 541.983 468.938 542.88 464.727 541.324 468.228 540.894 469.193 540.655 470.233 540.321 471.235L539.82 472.738 539.319 474.242 538.818 475.745C538.651 477.749 538.647 479.774 538.316 481.759 538.143 482.801 537.648 483.763 537.314 484.765L536.813 486.269C536.937 487.14 537.142 490.069 537.815 491.28 538.4 492.333 538.818 493.619 539.82 494.287 541.763 495.582 540.752 495.099 542.827 495.79 543.328 496.124 543.78 496.548 544.331 496.793 545.296 497.222 547.338 497.795 547.338 497.795 547.839 498.129 548.303 498.528 548.841 498.797 549.314 499.033 549.883 499.042 550.345 499.298 551.398 499.883 552.35 500.635 553.352 501.303 553.853 501.637 554.284 502.115 554.856 502.305L556.359 502.806C557.362 503.474 558.698 503.808 559.366 504.811 560.703 506.815 559.868 505.98 561.872 507.316 564.622 515.566 562.306 507.662 563.376 525.858 563.407 526.386 563.732 526.854 563.877 527.362 564.066 528.024 564.211 528.698 564.378 529.366 563.376 530.034 562.567 531.221 561.371 531.371 555.531 532.101 558.703 531.75 551.849 532.373 550.846 532.707 549.721 532.789 548.841 533.375 546.898 534.671 547.909 534.187 545.834 534.879 545.333 535.213 544.65 535.37 544.331 535.881 543.822 536.694 543.12 539.719 542.827 540.892 542.994 543.565 543.328 546.232 543.328 548.91 543.328 559.013 543.176 553.91 542.326 559.434 542.121 560.765 542.107 562.126 541.825 563.443 541.603 564.476 541.825 566.116 540.822 566.45L539.319 566.951C537.629 569.486 539.234 567.745 536.813 568.956 536.274 569.225 535.86 569.713 535.309 569.958 534.344 570.387 532.302 570.96 532.302 570.96 529.524 572.812 531.721 570.903 530.297 573.466 529.712 574.519 528.673 575.33 528.292 576.473L527.29 579.48C527.123 579.981 526.917 580.471 526.789 580.983 526.628 581.626 526.146 583.772 525.786 584.491 525.118 585.827 524.617 586.328 523.281 586.997 522.808 587.233 522.249 587.262 521.777 587.498 521.238 587.767 520.775 588.166 520.273 588.5 520.066 588.484 514.167 588.56 512.254 587.498 511.201 586.913 509.247 585.493 509.247 585.493 508.913 584.491 507.989 583.511 508.245 582.486 508.412 581.818 508.548 581.142 508.746 580.482 508.747 580.478 509.998 576.725 510.25 575.972L510.751 574.468C511.081 573.478 511.371 572.168 512.254 571.462 512.667 571.132 513.257 571.127 513.758 570.96 514.677 568.204 513.707 570.674 515.261 567.953 517.804 563.504 514.825 568.108 517.266 564.446 517.433 563.944 517.511 563.404 517.767 562.942 518.352 561.889 519.391 561.078 519.772 559.935 520.992 556.275 520.518 557.953 521.276 554.924 521.109 553.755 521.04 552.567 520.775 551.416 520.537 550.387 519.772 548.409 519.772 548.409 520.106 547.908 520.264 547.225 520.775 546.906 521.671 546.346 522.903 546.49 523.782 545.904L525.285 544.901C525.62 544.4 526.018 543.937 526.288 543.398 527.094 541.786 527.031 539.439 527.29 537.885 527.403 537.206 527.624 536.549 527.791 535.881 527.624 534.712 527.522 533.531 527.29 532.373 527.186 531.855 526.934 531.378 526.789 530.87 526.6 530.207 526.486 529.525 526.288 528.865 526.286 528.858 525.036 525.11 524.784 524.355L523.281 519.845 522.779 518.341C522.612 517.339 522.375 516.346 522.278 515.335 522.006 512.479 523.106 508.645 520.775 506.314 520.349 505.888 519.772 505.646 519.271 505.312L515.261 499.298C514.927 498.797 514.45 498.366 514.259 497.795 513.925 496.793 513.513 495.813 513.257 494.788 513.09 494.12 512.953 493.443 512.755 492.783 512.452 491.772 512.339 490.656 511.753 489.777L510.751 488.273 509.748 485.267C509.581 484.765 509.54 484.203 509.247 483.763 508.081 482.014 507.37 480.521 505.739 479.253 504.788 478.513 503.875 477.629 502.732 477.248 500.815 476.609 499.613 476.124 497.72 475.745 496.723 475.546 495.709 475.443 494.713 475.244 494.037 475.109 493.385 474.866 492.708 474.743 489.421 474.145 489.819 474.528 487.195 473.74 486.183 473.437 485.19 473.072 484.188 472.738L482.684 472.237C481.682 471.569 480.345 471.235 479.677 470.233 478.34 468.228 479.176 469.063 477.171 467.727 475.582 465.344 476.359 466.795 475.166 463.217L474.665 461.713C474.498 460.21 474.412 458.695 474.164 457.203 473.975 456.073 473.382 455.062 472.66 454.196 472.206 453.652 471.61 453.237 471.157 452.693 469.069 450.187 471.407 452.025 468.651 450.187 465.978 446.178 469.486 451.022 466.145 447.681 463.878 445.415 466.566 446.653 463.639 445.677 463.137 445.176 462.755 444.518 462.135 444.174 461.211 443.66 459.128 443.171 459.128 443.171 458.46 443.338 457.739 443.364 457.123 443.672 450.229 447.119 456.771 444.792 452.612 446.178L451.61 443.171C451.28 442.181 450.99 440.871 450.106 440.164 449.694 439.835 449.075 439.9 448.603 439.663 448.064 439.394 447.638 438.93 447.099 438.661 446.381 438.302 444.233 437.819 443.591 437.659 441.138 437.847 435.895 438.687 433.066 437.659 432.217 437.35 431.037 435.368 430.56 434.652L429.557 431.645C429.39 431.144 429.349 430.581 429.056 430.142 428.722 429.641 428.299 429.189 428.054 428.638 427.625 427.673 427.638 426.511 427.052 425.632 426.717 425.13 426.294 424.679 426.049 424.128 425.62 423.163 425.633 422 425.047 421.121 424.713 420.62 424.289 420.168 424.044 419.618 423.615 418.653 423.298 417.636 423.042 416.611 422.875 415.943 423.028 415.094 422.541 414.607 422.277 414.342 423.376 412.936 423.543 412.602Z" stroke="#000000" stroke-width="15.3333" stroke-miterlimit="8" fill="#FF0000" fill-rule="evenodd"/><path d="M402.19 581.314 402.19 581.314 422.401 590.399C422.883 590.612 423.399 590.736 423.898 590.904 424.539 591.12 424.955 591.282 425.644 591.409 426.223 591.515 426.809 591.577 427.391 591.661 429.201 591.458 429.259 591.554 430.635 591.156 430.887 591.083 431.13 590.977 431.383 590.904 431.713 590.809 432.051 590.747 432.381 590.651 432.634 590.578 432.871 590.445 433.13 590.399 434.288 590.192 435.482 590.183 436.623 589.894 439.053 589.28 436.022 590.029 438.869 589.39 439.203 589.314 439.537 589.233 439.867 589.137 440.119 589.064 440.356 588.933 440.615 588.885 441.275 588.764 441.95 588.744 442.611 588.633 444.012 588.396 443.171 588.428 444.358 588.128 444.769 588.024 445.188 587.952 445.605 587.876 448.247 587.39 447.048 587.686 451.095 587.371 452.196 587.285 454.414 587.035 455.586 586.866 456.087 586.794 456.58 586.667 457.083 586.614 458.161 586.499 459.245 586.445 460.327 586.361 460.826 586.193 461.313 585.986 461.824 585.857 463.077 585.54 462.496 585.714 463.57 585.352 465.279 583.623 464.48 584.234 465.816 583.333 466.149 582.828 466.315 582.155 466.814 581.819 468.53 580.662 467.742 581.001 469.06 580.557L472.802 580.809C473.801 580.884 474.795 581.062 475.796 581.062 478.625 581.062 481.452 580.893 484.28 580.809 484.599 580.729 485.669 580.485 486.026 580.305 486.295 580.169 486.526 579.968 486.775 579.8 486.941 579.547 487.048 579.242 487.274 579.043 488.33 578.108 488.492 578.127 489.52 577.781L491.017 576.771C491.266 576.603 491.481 576.363 491.765 576.267L492.514 576.014C493.7 575.214 492.978 575.605 494.759 575.005L495.508 574.753 496.256 574.5C497.254 574.584 498.293 574.455 499.251 574.753 499.502 574.831 499.5 575.244 499.5 575.51 499.5 576.104 499.366 576.693 499.251 577.276 499.199 577.537 499.165 577.826 499.001 578.033 498.814 578.27 498.502 578.37 498.253 578.538 498.086 578.79 497.966 579.081 497.754 579.295 497.541 579.51 497.192 579.563 497.005 579.8 495.628 581.541 498.152 579.615 496.007 581.062 495.413 582.864 495.946 582.281 494.759 583.081 494.593 583.333 494.382 583.561 494.26 583.838 494.047 584.324 494.053 584.909 493.761 585.352L493.262 586.109 492.514 588.38C492.431 588.633 492.41 588.916 492.264 589.137L491.266 590.651C491.1 591.156 491.059 591.723 490.767 592.166 490.435 592.67 489.959 593.104 489.769 593.68L489.021 595.951C488.937 596.204 488.917 596.487 488.771 596.708L488.272 597.465 486.775 602.008C486.692 602.26 486.589 602.507 486.525 602.765 486.442 603.102 486.411 603.456 486.276 603.774 486.158 604.053 485.911 604.26 485.777 604.532 485.659 604.77 485.645 605.051 485.527 605.289 485.393 605.56 485.163 605.775 485.028 606.046 484.911 606.284 484.907 606.57 484.779 606.803 484.488 607.333 483.781 608.317 483.781 608.317 483.698 608.654 483.666 609.008 483.531 609.327 483.413 609.605 483.166 609.812 483.032 610.084 482.915 610.322 482.866 610.588 482.783 610.841 482.494 614.932 482.372 614.603 482.783 619.169 482.852 619.944 483.2 620.012 483.531 620.683 483.649 620.921 483.717 621.182 483.781 621.44 483.884 621.856 483.881 622.3 484.03 622.702 484.136 622.986 484.395 623.188 484.529 623.459 484.647 623.697 484.661 623.978 484.779 624.216 485.126 624.919 485.475 625.172 486.026 625.73 486.936 628.492 485.412 624.383 487.024 626.992 487.59 627.907 487.527 629.025 487.773 630.021 488.186 631.693 488.294 631.568 489.27 633.049 489.436 633.301 489.52 633.638 489.769 633.806L490.518 634.311C491.661 636.046 491.326 635.249 491.765 636.582 491.067 640.817 492.337 634.921 490.019 639.61 489.852 639.947 489.717 640.301 489.52 640.62 489.299 640.977 489.01 641.285 488.771 641.629 488.427 642.126 488.106 642.639 487.773 643.144 487.607 643.396 487.408 643.629 487.274 643.901 487.108 644.237 486.921 644.564 486.775 644.91 486.671 645.155 486.69 645.46 486.525 645.667 486.338 645.904 486.026 646.004 485.777 646.172 484.487 648.129 484.968 647.111 484.28 649.2L484.03 649.957 483.781 650.715C483.702 651.434 483.7 652.897 483.282 653.743 483.148 654.014 482.949 654.248 482.783 654.5 481.361 654.021 482.389 654.312 480.038 653.995 476.742 653.551 479.756 653.857 475.048 653.491 473.041 652.814 475.232 653.483 470.806 652.986 470.336 652.933 469.533 652.641 469.06 652.481 468.81 652.229 468.619 651.897 468.311 651.724 467.851 651.466 467.313 651.388 466.814 651.219 464.932 650.585 467.252 651.441 465.317 650.462 465.082 650.343 464.798 650.339 464.568 650.21 464.044 649.915 463.57 649.537 463.071 649.2L462.323 648.696 461.574 648.191C461.491 647.938 461.511 647.622 461.325 647.434 460.901 647.005 459.828 646.424 459.828 646.424 459.661 646.172 459.541 645.882 459.329 645.667 459.116 645.453 458.767 645.399 458.58 645.162 458.416 644.955 458.414 644.658 458.33 644.405 458.206 643.648 458.021 642.044 457.582 641.377 457.416 641.125 457.295 640.834 457.083 640.62 456.871 640.405 456.584 640.283 456.334 640.115 455.493 638.839 456.292 639.715 455.087 639.106 454.819 638.97 454.607 638.737 454.338 638.601 453.919 638.389 452.991 638.217 452.592 638.096 452.088 637.943 451.605 637.721 451.095 637.592 450.762 637.507 450.426 637.434 450.097 637.339 448.878 636.987 449.133 636.839 447.352 636.582 444.926 636.232 446.176 636.474 443.609 635.825 443.277 635.741 442.937 635.682 442.611 635.573L438.869 634.311 437.371 633.806C436.706 633.638 436.048 633.437 435.375 633.301 434.664 633.157 433.834 633.01 433.13 632.797 432.626 632.644 432.132 632.46 431.633 632.292L430.136 631.787C429.886 631.703 429.642 631.599 429.387 631.535 428.829 631.394 427.257 631.024 426.892 630.778L425.395 629.768 424.646 629.263C424.397 629.095 424.182 628.855 423.898 628.759L422.401 628.254C421.285 626.561 422.599 628.22 421.153 627.245 419.284 625.984 421.436 626.835 419.656 626.235 418.237 624.8 419.603 625.956 418.159 625.226 417.891 625.09 417.684 624.844 417.41 624.721 416.93 624.505 415.913 624.216 415.913 624.216 414.769 622.481 415.484 622.894 414.167 622.45 413.917 622.197 413.689 621.921 413.418 621.692 412.679 621.069 412.543 621.212 411.672 620.683 411.157 620.371 410.711 619.945 410.175 619.674 409.842 619.505 409.495 619.362 409.177 619.169 407.031 617.867 408.437 618.415 406.931 617.907 406.379 617.349 406.128 616.996 405.434 616.645 405.199 616.526 404.935 616.477 404.685 616.393 404.436 616.224 404.211 616.011 403.937 615.888 403.456 615.672 402.44 615.383 402.44 615.383 400.87 614.325 402.554 615.338 399.695 614.374L397.449 613.617C397.2 613.533 396.956 613.429 396.701 613.364 396.368 613.28 396.031 613.212 395.703 613.112 394.947 612.883 394.206 612.607 393.457 612.355 393.208 612.271 392.944 612.222 392.709 612.103 391.24 611.36 392.064 611.717 390.214 611.093 389.964 611.009 389.727 610.867 389.465 610.841 388.264 610.719 386.919 610.666 385.722 610.336 383.123 609.619 385.226 610.135 383.227 609.327 381.462 608.612 382.203 609.016 380.732 608.569 380.228 608.417 379.734 608.233 379.235 608.065 378.986 607.981 378.747 607.845 378.486 607.812L376.49 607.56C375.632 607.436 374.822 607.306 373.995 607.055 373.491 606.902 372.498 606.551 372.498 606.551 372.332 606.298 372.133 606.065 371.999 605.793 371.743 605.276 371.595 604.255 371.5 603.774 371.583 601.756 371.632 599.735 371.75 597.718 371.834 596.264 371.878 595.434 372.249 594.185 372.4 593.675 372.512 593.146 372.748 592.67 372.914 592.334 373.1 592.007 373.247 591.661 373.35 591.416 373.335 591.114 373.496 590.904 373.929 590.34 374.494 589.894 374.993 589.39L375.742 588.633C375.906 588.134 376.051 587.474 376.49 587.118 376.696 586.952 376.989 586.95 377.239 586.866 377.975 585.749 377.393 586.264 378.736 585.857 379.24 585.704 380.233 585.352 380.233 585.352 381.481 585.436 382.759 585.311 383.976 585.604 384.559 585.745 384.904 586.422 385.473 586.614 385.722 586.698 385.991 586.737 386.221 586.866 386.746 587.161 387.219 587.539 387.718 587.876L388.467 588.38 389.215 588.885 389.964 589.39C392.084 589.211 392.476 589.67 393.707 588.633 393.978 588.404 394.206 588.128 394.455 587.876 395.082 585.973 394.236 588.318 395.204 586.361 396.237 584.272 394.522 587.016 395.952 584.847 396.117 584.349 396.261 583.689 396.701 583.333 396.906 583.167 397.2 583.165 397.449 583.081 397.616 582.828 397.736 582.538 397.948 582.323 399.911 580.338 397.401 583.543 399.445 581.062 399.637 580.829 399.71 580.494 399.945 580.305 400.15 580.138 400.693 579.786 400.693 580.052 400.693 580.355 399.945 580.557 402.19 581.314Z" stroke="#000000" stroke-width="15.3333" stroke-miterlimit="8" fill="#FF0000" fill-rule="evenodd"/><path d="M337.203 214.5C338.864 214.611 340.531 214.658 342.187 214.833 343.261 214.946 343.54 215.255 344.513 215.498 345.061 215.636 345.621 215.72 346.175 215.831 349.032 217.738 345.417 215.452 348.168 216.829 348.526 217.008 348.833 217.273 349.165 217.495 349.387 217.828 349.651 218.136 349.83 218.493 349.987 218.807 349.992 219.185 350.162 219.492 350.55 220.191 351.491 221.488 351.491 221.488 351.602 222.043 351.765 222.59 351.824 223.152 352.036 225.176 352.178 229.296 352.488 231.471 352.648 232.591 352.796 233.726 353.153 234.799 353.374 235.465 353.429 236.212 353.817 236.796 354.57 237.926 354.883 238.207 355.147 239.791 355.257 240.456 355.376 241.12 355.479 241.787 355.623 242.724 355.851 244.755 356.143 245.78 357.49 250.501 356.579 247.243 357.805 250.106 357.943 250.429 357.971 250.796 358.137 251.105 358.75 252.244 359.466 253.323 360.131 254.432 360.27 254.664 361.427 256.656 361.793 257.095 362.093 257.456 362.457 257.76 362.789 258.093 362.9 258.426 362.965 258.778 363.122 259.091 363.488 259.825 364.161 260.578 364.783 261.088 365.64 261.79 366.502 262.497 367.442 263.085 368.328 263.639 369.231 264.168 370.1 264.748 370.765 265.192 371.336 265.827 372.094 266.079 374.342 266.83 371.613 265.839 374.752 267.411 375.065 267.567 375.436 267.586 375.749 267.743 376.106 267.922 376.389 268.23 376.746 268.409 377.059 268.566 377.43 268.585 377.743 268.742 378.929 269.335 379.853 270.522 380.733 271.404 381.066 271.737 381.339 272.141 381.73 272.402L382.727 273.068C382.949 273.4 383.08 273.816 383.392 274.066 383.665 274.285 384.067 274.261 384.389 274.399 384.844 274.594 385.29 274.814 385.718 275.064 386.62 275.592 387.507 276.148 388.376 276.728 388.709 276.95 389.054 277.154 389.373 277.394 389.94 277.82 390.436 278.343 391.035 278.725 395.447 281.537 391.331 278.707 394.025 280.056 394.603 280.345 395.109 280.765 395.687 281.054 396.22 281.321 396.815 281.452 397.348 281.72 397.705 281.899 397.98 282.223 398.345 282.385 398.985 282.67 399.674 282.829 400.339 283.051L401.336 283.383C401.779 284.049 402 284.936 402.665 285.38 404.444 286.568 403.379 285.763 405.656 288.042 405.988 288.375 406.392 288.649 406.653 289.041 406.874 289.373 407.035 289.756 407.317 290.039 407.599 290.322 408.007 290.448 408.314 290.704 408.866 291.165 409.668 292.008 409.975 292.701 410.26 293.342 410.418 294.032 410.64 294.698L411.637 297.693C411.907 298.505 411.99 299.044 412.634 299.689 412.916 299.972 413.298 300.133 413.631 300.355 414.074 301.02 414.707 301.593 414.96 302.351L415.957 305.346C416.068 305.679 416.159 306.019 416.289 306.345 416.511 306.899 416.765 307.442 416.954 308.008 417.669 310.157 416.782 308.583 417.951 310.338 418.061 310.782 418.193 311.22 418.283 311.669 418.642 313.468 418.484 313.451 418.947 314.997 419.149 315.669 419.391 316.328 419.612 316.993 419.723 317.326 419.876 317.648 419.944 317.992 420.055 318.546 420.14 319.107 420.277 319.655 420.6 320.949 420.816 320.791 421.274 322.318 421.436 322.859 421.353 323.476 421.606 323.981 421.816 324.402 422.302 324.618 422.603 324.98 422.858 325.287 423.012 325.671 423.267 325.978 424.013 326.874 424.457 326.912 424.929 327.975L425.926 330.97C426.036 331.302 426.064 331.676 426.258 331.968 429.617 337.014 425.981 331.835 428.584 334.963 428.84 335.27 429.07 335.603 429.249 335.961 429.405 336.275 429.362 336.686 429.581 336.96 429.83 337.272 430.246 337.403 430.578 337.625 431.413 340.134 430.189 337.139 431.907 339.289 432.126 339.563 432.045 339.995 432.239 340.287 432.5 340.679 432.948 340.914 433.236 341.286 433.727 341.917 434.122 342.617 434.565 343.282 434.787 343.615 434.948 343.998 435.23 344.28 435.562 344.613 435.938 344.907 436.227 345.279 438.093 347.682 436.648 346.972 438.553 347.608 439.388 350.117 438.164 347.122 439.882 349.272 440.101 349.546 440.02 349.978 440.214 350.27 440.475 350.662 440.879 350.936 441.211 351.269 441.322 351.601 441.329 351.99 441.544 352.267 442.121 353.01 443.016 353.48 443.537 354.264 443.759 354.596 443.946 354.955 444.202 355.262 444.503 355.623 444.808 355.999 445.199 356.26 445.49 356.455 445.883 356.436 446.196 356.593 446.553 356.772 446.86 357.037 447.193 357.258 448.679 359.491 446.928 357.304 448.854 358.59 449.245 358.851 449.49 359.287 449.851 359.588 450.158 359.844 450.541 359.997 450.848 360.253 454.114 362.979 449.896 359.632 452.509 362.25 452.792 362.533 453.174 362.694 453.506 362.916L454.835 364.912 455.5 365.911C455.239 368.789 455.422 368.844 454.835 370.902 454.739 371.239 454.722 371.627 454.503 371.9 454.254 372.213 453.871 372.403 453.506 372.566 452.866 372.851 451.512 373.231 451.512 373.231 450.737 373.121 449.97 372.899 449.186 372.899 444.705 372.899 443.988 373.072 440.547 373.564 439.098 374.048 438.609 374.016 437.556 374.895 437.195 375.197 436.848 375.522 436.559 375.894 435.585 377.148 434.83 378.294 434.565 379.887 434.455 380.552 434.379 381.225 434.233 381.883 434.157 382.226 433.977 382.539 433.901 382.882 433.006 386.915 434.247 382.841 432.904 386.875L432.572 387.873C432.338 389.514 432.334 390.107 431.907 391.534 431.706 392.206 431.631 392.947 431.242 393.53 429.338 396.391 431.621 392.772 430.246 395.527 430.067 395.885 429.743 396.16 429.581 396.525 429.296 397.167 429.305 397.938 428.916 398.522 426.961 401.459 429.96 396.765 427.587 401.517 427.366 401.961 427.107 402.387 426.923 402.848 426.662 403.499 426.48 404.179 426.258 404.845 425.912 405.885 425.576 407.186 424.596 407.84L422.603 409.171C422.27 409.393 421.985 409.71 421.606 409.836L419.612 410.502C419.28 410.613 418.961 410.777 418.615 410.835 416.276 411.225 417.261 410.954 415.625 411.5L405.323 411.167C404.432 411.121 403.546 410.982 402.665 410.835 402.215 410.759 401.775 410.627 401.336 410.502 400.999 410.405 400.688 410.193 400.339 410.169 397.464 409.97 394.579 409.947 391.699 409.836 391.256 409.725 390.816 409.603 390.37 409.503 389.819 409.381 389.237 409.369 388.709 409.171 388.335 409.03 388.044 408.727 387.712 408.505 386.493 406.675 387.712 408.228 386.05 406.841 383.492 404.706 386.531 406.83 384.056 405.177 382.284 402.515 384.61 405.732 382.395 403.514 382.113 403.231 382.031 402.779 381.73 402.515 381.129 401.988 380.401 401.628 379.737 401.184 379.404 400.962 379.118 400.645 378.74 400.519 378.407 400.408 378.056 400.343 377.743 400.186 377.386 400.007 377.103 399.699 376.746 399.52 376.433 399.363 376.062 399.344 375.749 399.188 375.392 399.009 375.109 398.701 374.752 398.522 374.439 398.365 374.068 398.346 373.755 398.189 373.398 398.01 373.123 397.686 372.758 397.524 372.118 397.239 371.347 397.247 370.765 396.858 367.908 394.951 371.522 397.238 368.771 395.86 368.414 395.681 368.106 395.416 367.774 395.194 367.552 394.862 367.41 394.459 367.109 394.196 366.508 393.669 365.116 392.865 365.116 392.865 363.232 390.036 366.334 394.418 362.457 390.536 361.178 389.254 361.851 389.798 360.463 388.872 359.628 386.362 360.755 389.455 359.466 386.875 359.31 386.561 359.304 386.183 359.134 385.877 358.141 384.086 358.019 384.094 356.808 382.882L355.811 379.887C355.7 379.554 355.727 379.137 355.479 378.889 355.147 378.556 354.771 378.262 354.482 377.89 353.992 377.259 353.718 376.459 353.153 375.894 352.821 375.561 352.527 375.184 352.156 374.895L349.165 372.899C348.833 372.677 348.451 372.516 348.168 372.233 347.836 371.9 347.562 371.496 347.172 371.235 346.88 371.04 346.507 371.013 346.175 370.902 345.842 370.569 345.549 370.193 345.178 369.904 344.547 369.413 343.849 369.016 343.184 368.573 342.852 368.351 342.469 368.19 342.187 367.907 341.855 367.574 341.561 367.198 341.19 366.909 340.56 366.418 339.861 366.021 339.196 365.578L337.203 364.247 336.206 363.581C335.873 363.359 335.588 363.042 335.209 362.916 334.877 362.805 334.518 362.753 334.212 362.583 333.514 362.194 332.883 361.695 332.218 361.252L330.224 359.921C329.892 359.699 329.606 359.382 329.228 359.255 325.592 358.042 331.099 359.977 327.234 358.257 326.594 357.972 325.823 357.98 325.24 357.591 323.66 356.537 324.622 357.052 322.249 356.26 321.917 356.149 321.544 356.122 321.252 355.927L319.259 354.596 317.265 353.265 316.268 352.6C316.046 352.267 315.886 351.884 315.603 351.601 315.321 351.319 314.818 351.275 314.606 350.936 314.235 350.341 314.163 349.605 313.942 348.939 313.831 348.606 313.804 348.233 313.61 347.941 313.388 347.608 313.124 347.3 312.945 346.943 312.788 346.629 312.783 346.251 312.613 345.944 312.225 345.245 311.727 344.613 311.284 343.948 311.062 343.615 310.951 343.171 310.619 342.949L309.622 342.284 307.628 339.289C307.407 338.956 307.246 338.573 306.964 338.291 306.299 337.625 305.752 336.816 304.97 336.294 304.638 336.072 304.28 335.884 303.973 335.628 303.612 335.327 303.347 334.919 302.976 334.63L299.985 332.633 298.989 331.968C298.18 329.537 298.154 330.652 298.656 328.64 298.503 327.566 298.323 325.311 297.659 324.314 297.438 323.981 297.277 323.599 296.995 323.316 296.712 323.033 296.33 322.872 295.998 322.65 295.776 322.318 295.616 321.935 295.333 321.652 294.543 320.861 293.33 320.651 292.343 320.321L291.346 319.988 290.349 319.655 289.352 319.323C289.463 318.546 289.531 317.762 289.684 316.993 289.753 316.649 289.92 316.332 290.017 315.995 290.851 313.07 289.884 316.059 290.681 313.666 290.57 312.113 290.619 310.54 290.349 309.007 290.279 308.613 289.863 308.366 289.684 308.008 289.528 307.695 289.522 307.317 289.352 307.01 288.964 306.311 288.466 305.679 288.023 305.014L287.358 304.015C286.768 303.128 286.582 302.708 285.697 302.019 285.066 301.528 283.703 300.688 283.703 300.688 281.748 297.751 284.746 302.445 282.374 297.693 282.152 297.249 281.904 296.817 281.709 296.362 281.571 296.039 281.547 295.67 281.377 295.363 280.989 294.664 280.048 293.367 280.048 293.367 279.862 292.623 279.374 290.525 279.051 290.039 278.178 288.728 278.196 288.945 277.722 287.044 277.219 285.032 277.534 286.147 276.725 283.716 276.614 283.383 276.587 283.01 276.392 282.718 276.171 282.385 275.906 282.077 275.728 281.72 275.571 281.406 275.614 280.995 275.396 280.721 275.146 280.409 274.731 280.278 274.399 280.056 272.848 277.726 273.734 278.503 272.073 277.394 271.966 276.967 271.646 275.542 271.408 275.064 271.229 274.707 270.922 274.424 270.743 274.066 270.587 273.752 270.581 273.374 270.411 273.068 270.023 272.368 269.525 271.737 269.082 271.071 268.86 270.738 268.544 270.452 268.417 270.073L267.753 268.076C267.642 267.743 267.615 267.37 267.42 267.078L265.427 264.083C265.205 263.75 264.888 263.464 264.762 263.085L264.43 262.086 264.308 260.863 264.014 260.422C263.887 260.192 263.848 259.923 263.765 259.674L263.267 258.925C262.975 258.487 262.919 257.931 262.768 257.427 262.433 256.31 262.563 256.154 262.021 254.932 261.899 254.658 261.688 254.432 261.522 254.183 261.231 253.745 261.237 253.166 261.024 252.685L260.725 252.236 260.276 251.937 260.148 251.31 260.027 251.188C259.797 250.996 259.371 250.975 259.279 250.689L258.875 249.194 258.781 249.108C258.498 248.825 258.372 248.417 258.116 248.11 257.317 247.149 257.103 247.1 256.122 246.446 254.472 243.967 256.593 247.012 254.461 244.449 253.1 242.814 254.592 244.023 252.799 242.453 252.266 241.985 251.672 241.589 251.138 241.122 250.784 240.812 250.442 240.485 250.141 240.123 249.885 239.816 249.759 239.408 249.476 239.125 249.194 238.842 248.786 238.716 248.48 238.46L247.5 237.616 247.508 237.445 247.721 237.496 247.516 237.261 247.532 236.913C247.566 236.491 247.635 236.2 247.815 236.13 248.535 235.853 249.587 238.792 250.473 240.123 252.135 234.799 253.696 229.442 255.458 224.15 255.853 222.962 257.214 222.423 258.116 221.821L260.11 220.49C260.442 220.268 260.728 219.951 261.107 219.824 263.612 218.988 260.524 220.116 263.101 218.826 263.414 218.669 263.784 218.65 264.097 218.493 265.15 217.966 264.922 217.662 266.091 217.495 267.302 217.322 268.528 217.273 269.747 217.162L273.734 216.164 275.063 215.831 275.728 215.387 279.051 216.497 280.048 216.829C280.38 216.94 280.753 216.968 281.045 217.162 281.377 217.384 281.677 217.665 282.041 217.828 282.682 218.113 283.371 218.271 284.035 218.493 285.465 218.971 284.692 218.741 286.361 219.159 288.188 219.006 290.005 219.503 291.346 218.161 291.628 217.878 291.728 217.445 292.01 217.162 292.293 216.879 292.642 216.659 293.007 216.497 293.647 216.212 295.001 215.831 295.001 215.831 295.998 215.942 297.019 215.92 297.992 216.164 298.379 216.261 298.631 216.651 298.989 216.829 299.302 216.986 299.649 217.066 299.985 217.162 301.528 217.604 301.513 217.501 303.308 217.828 306.634 218.433 303.201 217.964 307.961 218.493 316.009 218.215 316.075 218.316 322.582 217.828 331 217.195 328.328 217.529 333.215 216.829 334.967 216.245 333.549 216.883 335.209 215.498 336.068 214.782 336.204 214.834 337.203 214.5Z" stroke="#000000" stroke-width="15.3333" stroke-miterlimit="8" fill="#FFFFFF" fill-rule="evenodd"/><path d="M338.25 100.5C339.5 100.583 340.755 100.612 342 100.75 342.262 100.779 342.564 100.814 342.75 101 343.175 101.425 343.75 102.5 343.75 102.5 344.591 105.025 343.307 101.106 344.25 104.25 344.401 104.755 344.458 105.311 344.75 105.75 345.446 106.794 345.037 106.288 346 107.25 346.203 107.86 346.265 108.265 346.75 108.75 346.963 108.963 347.25 109.083 347.5 109.25 348.667 111 348 110.417 349.25 111.25 350.584 113.251 348.833 110.833 350.5 112.5 350.713 112.713 350.787 113.038 351 113.25 351.212 113.463 351.519 113.558 351.75 113.75 352.386 114.28 352.483 114.671 353.25 115 353.566 115.135 353.92 115.156 354.25 115.25 354.503 115.323 354.758 115.396 355 115.5 358.067 116.814 354.24 115.245 356.75 116.5 356.986 116.618 357.25 116.667 357.5 116.75 357.583 117 357.632 117.264 357.75 117.5 358.013 118.026 358.547 118.648 359 119 359.474 119.369 360 119.667 360.5 120 360.75 120.167 360.958 120.427 361.25 120.5 362.762 120.878 361.923 120.641 363.75 121.25 365.174 121.725 364.145 121.436 366.5 121.75 370.586 122.295 366.291 121.715 369.5 122.25 370.081 122.347 370.668 122.41 371.25 122.5 374.026 122.927 371.741 122.52 373.5 123 374.163 123.181 374.848 123.283 375.5 123.5 375.75 123.583 375.987 123.731 376.25 123.75 378.246 123.898 380.25 123.917 382.25 124 383 124.083 383.753 124.143 384.5 124.25 384.921 124.31 385.332 124.424 385.75 124.5 386.249 124.591 386.753 124.651 387.25 124.75 388.914 125.083 387.752 125.055 390 125.25 391.331 125.366 392.668 125.401 394 125.5 394.918 125.568 395.833 125.667 396.75 125.75 397.167 125.833 397.577 125.955 398 126 399.163 126.122 400.348 126.047 401.5 126.25 401.796 126.302 402 126.583 402.25 126.75 402.333 127.083 402.5 127.406 402.5 127.75 402.5 128.094 402.344 128.42 402.25 128.75 402.177 129.003 402.128 129.27 402 129.5 401.458 130.476 400.425 131.884 399.5 132.5 399 132.833 398.425 133.075 398 133.5 397.064 134.436 397.585 134.138 396.5 134.5 396.25 134.75 395.976 134.978 395.75 135.25 395.558 135.481 395.462 135.788 395.25 136 395.037 136.212 394.75 136.333 394.5 136.5 393.871 138.386 394.72 136.061 393.75 138 392.715 140.07 394.433 137.351 393 139.5 392.768 140.659 392.565 140.841 393 142 393.105 142.281 393.245 142.591 393.5 142.75 393.947 143.029 394.5 143.083 395 143.25L395.75 143.5C396 143.583 396.24 143.707 396.5 143.75 398.581 144.097 397.498 143.928 399.75 144.25 400.159 144.386 400.995 144.592 401.25 145 401.529 145.447 401.75 146.5 401.75 146.5 401.67 146.821 401.43 147.891 401.25 148.25 401.116 148.519 400.917 148.75 400.75 149L400.25 150.5 400 151.25C399.957 151.763 399.426 154.246 400 155.25 400.175 155.557 400.478 155.774 400.75 156 400.981 156.192 401.25 156.333 401.5 156.5 401.753 156.879 402.25 157.483 402.25 158 402.25 158.75 402.163 161.506 401.5 162.5L401 163.25 400.5 164.75 400.25 165.5C400.167 166.167 400.23 166.869 400 167.5 399.879 167.832 399.522 168.024 399.25 168.25 398.249 169.084 398.109 168.799 396.5 169 395.646 168.934 392.143 168.702 391 168.5 390.323 168.381 389 168 389 168 388.75 167.833 388.525 167.622 388.25 167.5 387.768 167.286 386.75 167 386.75 167 386.666 167.01 384.533 167.144 384 167.5 383.706 167.696 383.522 168.024 383.25 168.25 383.019 168.442 382.75 168.583 382.5 168.75 382.417 169.083 382.349 169.421 382.25 169.75 382.25 169.751 381.625 171.624 381.5 172 381.417 172.25 381.469 172.604 381.25 172.75 381 172.917 380.775 173.128 380.5 173.25 380.018 173.464 379 173.75 379 173.75 378.75 173.583 378.462 173.463 378.25 173.25 376.583 171.583 379 173.334 377 172 375.065 172.215 374.971 171.751 374 173 373.631 173.474 373 174.5 373 174.5 372.833 175 372.873 175.627 372.5 176 372 176.5 371.588 177.108 371 177.5 369.908 178.228 370.049 178.096 368.75 179.25 366.988 180.816 369.292 179.139 366.5 181L365.75 181.5C365.316 182.804 365.821 181.798 364.75 182.75 362.726 184.549 364.047 183.985 362.5 184.5 362.25 184.75 362.022 185.024 361.75 185.25 360.677 186.144 361.246 185.305 360.25 186.5 360.058 186.731 359.942 187.019 359.75 187.25 359.524 187.522 359.226 187.728 359 188 358.808 188.231 358.713 188.538 358.5 188.75 358.288 188.963 358 189.083 357.75 189.25 357.583 189.5 357.462 189.788 357.25 190 357.037 190.212 356.688 190.265 356.5 190.5 356.335 190.706 356.368 191.014 356.25 191.25 356.116 191.519 355.917 191.75 355.75 192L354 197.25 353.5 198.75 353.25 199.5C353.092 200.766 352.944 201.713 352.909 202.713L353.198 205.716 352.818 211.003 352.772 215.06 351.5 214C351.018 213.786 350.5 213.667 350 213.5L349.25 213.25C348.333 213.333 347.419 213.441 346.5 213.5 344.659 213.619 342.224 213.462 340.25 214 337.413 214.774 339.788 214.106 338 215 337.764 215.118 337.48 215.122 337.25 215.25 336.725 215.542 336.32 216.06 335.75 216.25 333.243 217.086 335.276 216.495 332.75 217 330.768 217.397 332.799 217.113 330.25 217.75 329.917 217.833 329.58 217.906 329.25 218 328.997 218.072 328.736 218.132 328.5 218.25 328.231 218.384 328.047 218.703 327.75 218.75 326.43 218.958 325.084 218.922 323.75 219 317.992 219.339 320.98 219.077 316.75 219.5 315.667 219.417 314.573 219.42 313.5 219.25 309.277 218.583 314.941 218.803 310.25 218.5 308.252 218.371 306.25 218.333 304.25 218.25 303.57 218.08 302.681 217.841 302 217.75 301.17 217.639 300.333 217.583 299.5 217.5 299.25 217.417 299.006 217.314 298.75 217.25 296.344 216.649 296.037 217.073 292.5 217.25L291 217.75 290.25 218C289.061 218.793 289.785 218.405 288 219L287.25 219.25C286.583 219.167 285.92 219.054 285.25 219 283.835 218.887 282.407 218.934 281 218.75 280.477 218.682 279.5 218.25 279.5 218.25 278.31 217.457 279.218 217.94 277.75 217.5 277.245 217.349 276.25 217 276.25 217 275.176 215.388 275.98 216.408 275.722 216.436L275.195 216.118 274 216.417 270 217.417C268.778 217.528 267.548 217.576 266.333 217.75 265.16 217.918 265.39 218.222 264.333 218.75 264.019 218.907 263.648 218.926 263.333 219.083 260.749 220.376 263.847 219.246 261.333 220.083 260.953 220.21 260.667 220.528 260.333 220.75L258.333 222.083C257.429 222.687 256.064 223.226 255.667 224.417L251.287 238.431 251.5 238.75 252.25 239.5C252.429 240.217 252.696 241.392 253 242 253.736 243.471 253.382 242.646 254 244.5L254.25 245.25C254.51 246.031 254.764 247.009 255.5 247.5 258.18 249.287 254.112 246.504 257 248.75 257.474 249.119 258.5 249.75 258.5 249.75L259.5 251.25C259.667 251.5 259.75 251.833 260 252L260.75 252.5C260.917 252.75 261.058 253.019 261.25 253.25 262.855 255.176 261.258 252.887 262.5 254.75L263.25 257 263.5 257.75C263.583 258.583 263.75 259.413 263.75 260.25 263.75 261.832 263.125 261.917 263 262.25 257.583 258.833 252.242 255.295 246.75 252 246.386 251.781 245.91 251.862 245.5 251.75 245.495 251.749 243.627 251.126 243.25 251 243 250.917 242.719 250.896 242.5 250.75 242.25 250.583 242.025 250.372 241.75 250.25 241.268 250.036 240.75 249.917 240.25 249.75L239.5 249.5C239.25 249.333 239.025 249.122 238.75 249 238.268 248.786 237.75 248.667 237.25 248.5L236.5 248.25 235.75 248C235.5 247.917 235.219 247.896 235 247.75 234.75 247.583 234.525 247.372 234.25 247.25 233.768 247.036 233.25 246.917 232.75 246.75L231.25 246.25 230.5 246C230.25 245.917 229.969 245.896 229.75 245.75 227.6 244.317 230.321 246.035 228.25 245 227.981 244.866 227.769 244.634 227.5 244.5 226.964 244.232 226.013 244.114 225.5 244 225.165 243.925 224.83 243.844 224.5 243.75 224.247 243.678 224.006 243.564 223.75 243.5 223.338 243.397 222.917 243.333 222.5 243.25 221.855 243.342 220.698 243.401 220 243.75 219.731 243.884 219.525 244.128 219.25 244.25 218.768 244.464 218.25 244.583 217.75 244.75 217.5 244.833 217.258 244.948 217 245 216.583 245.083 216.16 245.138 215.75 245.25 215.242 245.389 214.25 245.75 214.25 245.75 212.25 247.084 214.667 245.333 213 247 212.788 247.212 212.5 247.333 212.25 247.5 209.723 251.291 212.458 247.4 210.5 249.75 209.459 251 210.625 250.084 209.25 251 209.083 251.25 208.963 251.538 208.75 251.75 208.538 251.963 208.245 252.075 208 252.25 207.464 252.633 206.838 253.164 206.25 253.5 205.926 253.685 205.56 253.793 205.25 254 204.806 254.296 204.431 254.686 204 255 203.514 255.353 202.925 255.575 202.5 256 201.538 256.963 202.044 256.554 201 257.25 200.406 259.033 201.249 256.877 200 258.75 199.854 258.969 199.896 259.281 199.75 259.5 199.554 259.794 199.226 259.978 199 260.25 198.061 261.377 198.823 261.285 197 262.5 196.75 262.667 196.478 262.805 196.25 263 195.892 263.307 195.618 263.706 195.25 264 194.022 264.982 194.105 264.882 193 265.25 191.825 266.425 192.446 265.706 191.25 267.5 191.083 267.75 190.845 267.965 190.75 268.25L190.25 269.75C190.167 270 190.146 270.281 190 270.5 189.833 270.75 189.634 270.981 189.5 271.25 189.382 271.486 189.436 271.814 189.25 272 188.825 272.425 188.25 272.667 187.75 273 186.781 273.646 187.285 273.405 186.25 273.75 186.116 273.851 184.799 274.867 184.5 275 184.018 275.214 183.439 275.208 183 275.5 182.75 275.667 182.525 275.878 182.25 276 181.025 276.544 180.869 276.414 179.75 276.75 177.212 277.511 179.278 277.044 177 277.5 175.833 277.417 174.635 277.534 173.5 277.25 173.208 277.177 173.03 276.799 173 276.5 172.941 275.914 173.081 275.314 173.25 274.75 173.336 274.462 173.583 274.25 173.75 274 173.833 273.75 173.872 273.48 174 273.25 174.292 272.725 174.81 272.32 175 271.75 175.345 270.715 175.104 271.219 175.75 270.25 175.917 269.75 175.958 269.189 176.25 268.75L177.75 266.5C177.917 266.25 178.155 266.035 178.25 265.75 178.618 264.647 178.382 265.236 179 264 179.366 261.805 179.389 262.421 179 259.5 178.965 259.239 178.936 258.936 178.75 258.75 178.564 258.564 178.25 258.583 178 258.5 177.208 257.311 177.785 257.845 176 257.25L175.25 257C174.167 257.083 173.08 257.13 172 257.25 171.578 257.297 171.169 257.43 170.75 257.5 167.029 258.12 170.696 257.411 167.75 258 166.5 257.917 165.24 257.927 164 257.75 163.478 257.675 163 257.417 162.5 257.25 162.25 257.167 161.969 257.146 161.75 257 161.5 256.833 161.275 256.622 161 256.5 160.999 256.499 159.126 255.875 158.75 255.75L158 255.5 157.25 255.25 155.75 254.25C155.5 254.083 155.212 253.963 155 253.75 154.038 252.788 154.544 253.196 153.5 252.5L152.5 251 152 250.25 151 247.25 150.75 246.5C150.667 246.25 150.646 245.969 150.5 245.75L149 243.5C148.833 243.25 148.595 243.035 148.5 242.75 148.155 241.715 148.396 242.219 147.75 241.25 147.583 240.75 147.175 240.272 147.25 239.75 147.333 239.167 147.368 238.574 147.5 238 147.619 237.487 147.833 237 148 236.5L148.25 235.75C148.564 234.807 148.641 234.359 149.5 233.5 151.212 231.788 150.608 232.588 151.5 231.25 152.128 229.366 151.281 231.688 152.25 229.75 152.368 229.514 152.354 229.219 152.5 229 152.696 228.706 153.024 228.522 153.25 228.25 153.442 228.019 153.583 227.75 153.75 227.5 153.833 227.25 154 227.014 154 226.75 154 225.141 153.928 225.267 153.25 224.25 152.99 223.469 152.737 222.491 152 222L151.25 221.5C149.917 219.5 151.667 221.917 150 220.25 149.788 220.038 149.713 219.713 149.5 219.5 149.288 219.288 148.981 219.192 148.75 219 148.478 218.774 148.272 218.476 148 218.25 147.769 218.058 147.525 217.872 147.25 217.75 146.768 217.536 145.75 217.25 145.75 217.25 145.417 216.75 144.94 216.32 144.75 215.75L143.75 212.75C143.667 212.5 143.686 212.186 143.5 212L142.75 211.25C142.667 211 142.618 210.736 142.5 210.5 142.366 210.231 142.122 210.025 142 209.75 141.786 209.268 141.5 208.25 141.5 208.25 141.583 207.083 141.613 205.912 141.75 204.75 141.781 204.488 141.835 204.206 142 204 142.432 203.46 143.792 203.153 144.25 203L145 202.75 145.75 202.5C146.25 202.167 146.68 201.69 147.25 201.5 147.75 201.333 148.311 201.292 148.75 201 149.719 200.354 149.215 200.595 150.25 200.25 150.721 199.779 151.222 199.376 151.5 198.75 151.714 198.268 152 197.25 152 197.25 152.083 192.5 152.092 187.748 152.25 183 152.259 182.737 152.428 182.503 152.5 182.25 152.594 181.92 152.656 181.58 152.75 181.25 153.467 178.74 152.469 182.626 153.25 179.5 153.21 178.948 153.318 176.386 152.75 175.25 152.616 174.981 152.442 174.731 152.25 174.5 152.024 174.228 151.772 173.976 151.5 173.75 151.269 173.558 151 173.417 150.75 173.25 150.259 172.513 150.222 172.351 149.5 171.75 149.269 171.558 149 171.417 148.75 171.25 148.583 171 148.372 170.775 148.25 170.5 148.036 170.018 147.75 169 147.75 169 147.972 167.222 147.47 167.14 148.75 166.5 148.986 166.382 149.25 166.333 149.5 166.25 149.75 166.083 149.975 165.872 150.25 165.75 150.953 165.437 152.201 165.094 153 165 153.997 164.883 155.001 164.85 156 164.75 157.377 164.612 158.002 164.527 159.25 164.25 159.585 164.176 159.908 164.03 160.25 164 161.829 163.863 163.417 163.833 165 163.75L166.5 163.25C166.75 163.167 166.994 163.064 167.25 163 167.583 162.917 167.92 162.844 168.25 162.75 168.503 162.678 168.746 162.569 169 162.5 169.663 162.319 170.348 162.217 171 162 171.5 161.833 171.989 161.628 172.5 161.5 172.833 161.417 173.171 161.349 173.5 161.25 174.005 161.099 174.561 161.042 175 160.75 176.786 159.559 175.917 159.896 177.5 159.5 177.75 159.333 177.981 159.134 178.25 159 178.649 158.8 179.626 158.607 180 158.5 180.512 158.354 181.23 158.037 181.75 158 183.747 157.857 185.75 157.833 187.75 157.75 190.775 157.448 189.455 157.765 191.75 157L193.25 156.5 194 156.25C194.167 156 194.308 155.731 194.5 155.5 194.726 155.228 195.054 155.044 195.25 154.75 195.396 154.531 195.372 154.23 195.5 154 195.792 153.475 196.075 152.925 196.5 152.5 197.147 151.853 197.951 151.147 198.25 150.25 198.333 150 198.372 149.73 198.5 149.5 198.792 148.975 199.5 148 199.5 148 199.583 147.75 199.75 147.514 199.75 147.25 199.75 146.496 198.643 145.428 198.5 145L198.25 144.25C198.463 142.974 198.595 141.519 199.5 140.5 199.97 139.972 200.5 139.5 201 139 201.25 138.75 201.554 138.544 201.75 138.25 202.417 137.25 202 137.667 203 137 203.583 136.125 203.75 135.667 205 135.25L206.5 134.75C206.833 134.833 207.202 134.829 207.5 135 208.495 135.569 208.094 135.689 208.5 136.5 209.469 138.438 208.622 136.115 209.25 138 209.167 138.75 209 139.495 209 140.25 209 141.752 209.107 143.254 209.25 144.75 209.275 145.012 209.372 145.27 209.5 145.5 210.37 147.066 210.69 147.189 212 148.5L212.75 149.25C213 149.5 213.304 149.706 213.5 150 213.667 150.25 213.765 150.562 214 150.75 214.206 150.915 214.5 150.917 214.75 151 214.917 151.25 215.058 151.519 215.25 151.75 215.596 152.166 216.229 152.769 216.75 153 217.232 153.214 217.811 153.208 218.25 153.5 218.5 153.667 218.725 153.878 219 154 219.482 154.214 220.5 154.5 220.5 154.5 220.75 154.667 221.019 154.808 221.25 155 221.972 155.602 222.008 155.763 222.5 156.5 222.878 158.011 222.642 157.175 223.25 159 223.333 159.25 223.448 159.492 223.5 159.75L224 162.25C223.698 163.758 223.601 163.523 224 165.25 224.119 165.764 224 166.583 224.5 166.75L225.25 167C225.5 167.167 225.701 167.475 226 167.5 227.888 167.657 227.885 167.493 229 166.75 229.167 166.5 229.265 166.188 229.5 166 229.706 165.835 230.014 165.868 230.25 165.75 230.519 165.616 230.75 165.417 231 165.25 231.167 165 231.308 164.731 231.5 164.5 231.726 164.228 232.054 164.044 232.25 163.75 232.396 163.531 232.417 163.25 232.5 163 232.25 162.917 231.936 162.936 231.75 162.75 231.564 162.564 231.471 162.262 231.5 162 231.558 161.476 231.833 161 232 160.5L232.25 159.75 232.75 158.25C232.833 157.833 232.888 157.41 233 157 233.139 156.492 233.333 156 233.5 155.5 233.583 155.25 233.604 154.969 233.75 154.75 233.917 154.5 234.116 154.269 234.25 154 234.368 153.764 234.382 153.486 234.5 153.25 234.634 152.981 234.866 152.769 235 152.5 235.118 152.264 235.104 151.969 235.25 151.75 235.446 151.456 235.75 151.25 236 151 236.594 149.217 235.751 151.373 237 149.5 237.146 149.281 237.122 148.98 237.25 148.75 237.542 148.225 238.06 147.82 238.25 147.25 239.055 144.834 237.763 148.591 239 145.5 239.196 145.011 239.333 144.5 239.5 144 239.583 143.75 239.686 143.506 239.75 143.25 239.833 142.917 239.901 142.579 240 142.25 240.151 141.745 240.372 141.261 240.5 140.75L241 138.75C241.08 137.874 241.084 135.5 241.75 134.5 241.917 134.25 242.015 133.938 242.25 133.75 242.456 133.585 242.75 133.583 243 133.5 243.25 133.333 243.451 133.03 243.75 133 245.149 132.86 245.34 133.144 246.25 133.75 246.417 134 246.538 134.288 246.75 134.5 246.963 134.713 247.312 134.765 247.5 135 247.665 135.206 247.622 135.52 247.75 135.75 248.042 136.275 248.75 137.25 248.75 137.25 249.378 139.135 248.531 136.811 249.5 138.75 249.618 138.986 249.632 139.264 249.75 139.5 249.884 139.769 250.116 139.981 250.25 140.25 250.587 140.923 250.364 141.193 251 141.75 251.452 142.146 252.5 142.75 252.5 142.75 254.593 142.401 253.578 142.781 255.5 141.5L256.25 141C257.093 139.736 256.292 140.604 257.5 140 257.769 139.866 257.975 139.622 258.25 139.5 258.732 139.286 259.25 139.167 259.75 139L260.5 138.75C261.25 138.833 262.034 138.761 262.75 139 263.32 139.19 264.25 140 264.25 140 265.162 142.736 263.707 138.591 265 141.5 265.214 141.982 265.333 142.5 265.5 143 265.761 143.782 266.013 144.759 266.75 145.25L268.25 146.25C268.926 146.701 269.208 146.933 270 147.25 270.489 147.446 271.5 147.75 271.5 147.75 272.083 147.667 272.676 147.633 273.25 147.5 273.764 147.382 274.75 147 274.75 147 275.093 145.284 275.227 145.228 274.75 143 274.637 142.472 273.776 141.855 273.5 141.5 272.497 140.211 272.627 140.382 272.25 139.25 272.39 138.691 272.757 137.115 273 136.75L273.5 136C273.862 134.914 273.954 135.012 273.5 133.5 273.414 133.212 273.255 132.909 273 132.75 272.553 132.471 272 132.417 271.5 132.25L270.75 132C270.5 131.75 270.196 131.544 270 131.25 269.854 131.031 269.868 130.736 269.75 130.5 269.616 130.231 269.417 130 269.25 129.75 269.167 129.5 269 129.264 269 129 269 128.493 268.959 127.915 269.25 127.5 269.606 126.991 270.778 126.411 271.5 126.25 271.995 126.14 272.508 126.123 273 126 273.511 125.872 274 125.667 274.5 125.5L275.25 125.25C275.5 125 275.804 124.794 276 124.5 276.146 124.281 276.132 123.986 276.25 123.75 276.384 123.481 276.583 123.25 276.75 123 276.917 122.5 276.958 121.939 277.25 121.5L278.75 119.25C278.917 119 279.155 118.785 279.25 118.5 279.879 116.614 279.031 118.939 280 117 281.035 114.931 279.317 117.649 280.75 115.5 280.833 115.25 280.882 114.986 281 114.75 281.338 114.073 281.804 113.598 282.5 113.25 282.971 113.014 283.5 112.917 284 112.75L285.5 112.25 286.25 112C287.917 112.083 289.587 112.106 291.25 112.25 292.427 112.352 291.691 112.662 292.75 113.25 293.211 113.506 294.25 113.75 294.25 113.75 294.5 114 294.721 114.283 295 114.5 296.04 115.309 296.228 115.458 297.25 115.75 297.58 115.844 297.917 115.917 298.25 116L307.5 115.75C309.41 115.663 308.993 115.885 309.75 114.75 309.833 114.417 309.928 114.086 310 113.75 310.145 113.074 310.465 111.201 310.75 110.25 310.901 109.745 310.811 109.042 311.25 108.75 311.5 108.583 311.769 108.442 312 108.25 312.272 108.024 312.441 107.672 312.75 107.5 313.211 107.244 313.811 107.292 314.25 107 315.219 106.354 314.715 106.595 315.75 106.25 316 106.083 316.207 105.818 316.5 105.75 317.316 105.562 318.17 105.611 319 105.5 319.421 105.444 319.838 105.353 320.25 105.25 320.506 105.186 320.744 105.064 321 105 321.412 104.897 321.84 104.862 322.25 104.75 322.758 104.611 323.25 104.417 323.75 104.25 324 104.167 324.237 104.022 324.5 104L327.5 103.75C330.808 102.923 325.663 104.138 334.25 103.25 334.774 103.196 335.25 102.917 335.75 102.75L336.5 102.5C336.75 102.333 337.052 102.226 337.25 102 337.646 101.548 338.25 100.5 338.25 100.5Z" stroke="#000000" stroke-width="15.3333" stroke-miterlimit="8" fill="#008000" fill-rule="evenodd"/></g></svg>