<svg width="503" height="503" xmlns="http://www.w3.org/2000/svg" xmlns:xlink="http://www.w3.org/1999/xlink" overflow="hidden"><defs><clipPath id="clip0"><rect x="-17" y="-17" width="503" height="503"/></clipPath><clipPath id="clip1"><rect x="0" y="0" width="469" height="469"/></clipPath><clipPath id="clip2"><rect x="0" y="0" width="469" height="469"/></clipPath><clipPath id="clip3"><rect x="0" y="0" width="469" height="469"/></clipPath></defs><g clip-path="url(#clip0)" transform="translate(17 17)"><g clip-path="url(#clip1)"><g clip-path="url(#clip2)"><g clip-path="url(#clip3)"><path d="M234.501 170.546C199.219 170.546 170.546 199.219 170.546 234.501 170.546 269.782 199.219 298.455 234.501 298.455 269.782 298.455 298.455 269.782 298.455 234.501 298.455 199.219 269.781 170.546 234.501 170.546Z"/><path d="M234.501 74.614C127.909 74.614 36.8808 140.913 0 234.501 36.8808 328.087 127.909 394.387 234.501 394.387 341.198 394.387 432.12 328.087 469.001 234.501 432.12 140.913 341.198 74.614 234.501 74.614ZM234.501 341.091C175.662 341.091 127.909 293.338 127.909 234.499 127.909 175.661 175.662 127.909 234.501 127.909 293.339 127.909 341.092 175.662 341.092 234.501 341.092 293.339 293.339 341.091 234.501 341.091Z"/></g></g></g><path d="M0.500053 78.6662C0.500053 35.4962 35.4962 0.500053 78.6662 0.500053L391.334 0.500053C434.504 0.500053 469.5 35.4962 469.5 78.6662L469.5 391.323C469.5 434.493 434.504 469.489 391.334 469.489L78.6662 469.489C35.4962 469.489 0.500053 434.493 0.500053 391.323Z" stroke="#C00000" stroke-width="33.3333" stroke-miterlimit="8" fill="none" fill-rule="evenodd"/></g></svg>