<svg width="758" height="758" xmlns="http://www.w3.org/2000/svg" xmlns:xlink="http://www.w3.org/1999/xlink" overflow="hidden"><defs><clipPath id="clip0"><rect x="-1" y="-1" width="758" height="758"/></clipPath></defs><g clip-path="url(#clip0)" transform="translate(1 1)"><path d="M316.004 424 322.126 429.028C337.989 439.697 357.113 445.927 377.699 445.927 398.284 445.927 417.408 439.697 433.272 429.028L439.2 424.159 441.764 426.168C472.834 453.157 494.509 499.135 498.399 552.43L499 569 256 569 256.601 552.43C260.491 499.135 282.166 453.157 313.236 426.168Z" fill="#2F5597" fill-rule="evenodd"/><path d="M224 187C269.84 187 307 224.16 307 270L306.386 276.091 295.115 289.751C287.975 300.32 282.815 312.338 280.169 325.27L279.209 331.562 270.406 338.825C257.159 347.774 241.19 353 224 353 178.16 353 141 315.84 141 270 141 224.16 178.16 187 224 187Z" fill="#ECC49C" fill-rule="evenodd"/><path d="M295 346C295 300.16 332.16 263 378 263 423.84 263 461 300.16 461 346 461 391.84 423.84 429 378 429 332.16 429 295 391.84 295 346Z" fill="#ECC49C" fill-rule="evenodd"/><path d="M157.97 346 164.089 351.028C179.944 361.697 199.057 367.927 219.631 367.927 240.205 367.927 259.319 361.697 275.173 351.028L278.636 348.183 280.445 366.059C283.423 380.552 289.581 393.89 298.163 405.32L303 411.088 292.78 421.125C276.679 438.905 263.519 461.623 254.481 487.636L253.479 491 98 491 98.6009 474.43C102.488 421.135 124.151 375.157 155.205 348.168Z" fill="#2F5597" fill-rule="evenodd"/><path d="M83.5 0C129.616 0 167 37.1604 167 83L166.382 89.0912 155.044 102.751C147.86 113.321 142.67 125.338 140.007 138.27L139.041 144.562 130.186 151.825C116.859 160.774 100.793 166 83.5 166 37.3842 166 0 128.84 0 83 0 37.1604 37.3842 0 83.5 0Z" fill="#ECC49C" fill-rule="evenodd" transform="matrix(-1 0 0 1 612 187)"/><path d="M59.9703 0 66.0889 5.02837C81.9437 15.6974 101.057 21.9271 121.631 21.9271 142.205 21.9271 161.319 15.6974 177.173 5.02837L180.636 2.18257 182.445 20.0589C185.423 34.5518 191.581 47.8904 200.163 59.3196L205 65.0879 194.78 75.1254C178.679 92.9049 165.519 115.623 156.481 141.636L155.479 145 0 145 0.600909 128.43C4.48835 75.1353 26.151 29.1568 57.2045 2.16762Z" fill="#2F5597" fill-rule="evenodd" transform="matrix(-1 0 0 1 655 346)"/></g></svg>