<?xml version="1.0" encoding="UTF-8" standalone="no"?>
<svg
   xmlns:dc="http://purl.org/dc/elements/1.1/"
   xmlns:cc="http://creativecommons.org/ns#"
   xmlns:rdf="http://www.w3.org/1999/02/22-rdf-syntax-ns#"
   xmlns:svg="http://www.w3.org/2000/svg"
   xmlns="http://www.w3.org/2000/svg"
   xmlns:sodipodi="http://sodipodi.sourceforge.net/DTD/sodipodi-0.dtd"
   xmlns:inkscape="http://www.inkscape.org/namespaces/inkscape"
   version="1.1"
   id="svg2"
   xml:space="preserve"
   width="163.38667"
   height="162.86667"
   viewBox="0 0 163.38667 162.86667"
   sodipodi:docname="protezioneCivile.eps"><metadata
     id="metadata8"><rdf:RDF><cc:Work
         rdf:about=""><dc:format>image/svg+xml</dc:format><dc:type
           rdf:resource="http://purl.org/dc/dcmitype/StillImage" /></cc:Work></rdf:RDF></metadata><defs
     id="defs6"><clipPath
       clipPathUnits="userSpaceOnUse"
       id="clipPath20"><path
         d="m 435.109,555.945 c 0,0 -106.293,-26.347 -147.957,-71.621 -41.668,-45.273 -42.789,-76.336 -25.449,-93.465 17.332,-17.121 68.231,-20.937 108.094,0 39.867,20.946 152.258,111.707 152.258,111.707 l -86.946,53.379"
         id="path18" /></clipPath><clipPath
       clipPathUnits="userSpaceOnUse"
       id="clipPath142"><path
         d="m 974.145,400.086 c -2.95,5.117 -20.911,31.269 -72.168,45.019 l 85.222,-19.207 14.761,-9.765 c 0,0 -0.86,-19.309 -15.542,-25.469 l -12.273,9.422"
         id="path140" /></clipPath><clipPath
       clipPathUnits="userSpaceOnUse"
       id="clipPath188"><path
         d="m 631.926,593.035 c 39.414,0.215 177.492,-4.676 309.23,-86.269 52.586,-30.352 81.064,-79.403 64.024,-108.926 -0.18,-0.332 -0.39,-0.645 -0.6,-0.945 l -43.834,21.902 c 0,0 -18.457,9.004 -59.914,18.086 -7.156,1.555 -14.969,3.156 -23.543,4.668 l -0.031,0.058 c -0.488,0.039 -11.512,1.633 -30.469,3.86 -42.371,4.961 -124.199,12.898 -214.883,13.347"
         id="path186" /></clipPath><clipPath
       clipPathUnits="userSpaceOnUse"
       id="clipPath198"><path
         d="M 678.461,593.367 H 1002.88 V 397.207 H 678.461 Z"
         id="path196" /></clipPath><clipPath
       clipPathUnits="userSpaceOnUse"
       id="clipPath204"><path
         d="m 631.926,593.035 c 39.414,0.215 177.492,-4.676 309.23,-86.269 52.586,-30.352 81.064,-79.403 64.024,-108.926 -0.18,-0.332 -0.39,-0.645 -0.6,-0.945 l -43.834,21.902 c 0,0 -18.457,9.004 -59.914,18.086 -7.156,1.555 -14.969,3.156 -23.543,4.668 l -0.031,0.058 c -0.488,0.039 -11.512,1.633 -30.469,3.86 -42.371,4.961 -124.199,12.898 -214.883,13.347"
         id="path202" /></clipPath><clipPath
       clipPathUnits="userSpaceOnUse"
       id="clipPath324"><path
         d="m 1002.88,593.367 h 15.46 v -196.16 h -15.46 z"
         id="path322" /></clipPath><clipPath
       clipPathUnits="userSpaceOnUse"
       id="clipPath330"><path
         d="m 631.926,593.035 c 39.414,0.215 177.492,-4.676 309.23,-86.269 52.586,-30.352 81.064,-79.403 64.024,-108.926 -0.18,-0.332 -0.39,-0.645 -0.6,-0.945 l -43.834,21.902 c 0,0 -18.457,9.004 -59.914,18.086 -7.156,1.555 -14.969,3.156 -23.543,4.668 l -0.031,0.058 c -0.488,0.039 -11.512,1.633 -30.469,3.86 -42.371,4.961 -124.199,12.898 -214.883,13.347"
         id="path328" /></clipPath><clipPath
       clipPathUnits="userSpaceOnUse"
       id="clipPath348"><path
         d="M 830.648,580.535 1002.45,451.055 877.602,285.391 705.793,414.863 830.648,580.535"
         id="path346" /></clipPath><clipPath
       clipPathUnits="userSpaceOnUse"
       id="clipPath354"><path
         d="m 900.785,436.309 c -114.68,24.363 -256.113,24.648 -256.113,24.648 v 132.039 c 47.215,0 106.492,-13.379 106.492,-13.379 C 842.102,563.035 929.203,505 929.203,505 c 37.938,-23.848 53.145,-45.156 53.145,-45.156 41.072,-48.703 10.312,-75.899 10.312,-75.899 l -23.898,20.703 c -23.262,11.836 -48.973,26.415 -48.973,26.415 0,0 -11.094,3.566 -19.004,5.246"
         id="path352" /></clipPath><clipPath
       clipPathUnits="userSpaceOnUse"
       id="clipPath436"><path
         d="m 900.785,436.309 c -114.68,24.363 -256.113,24.648 -256.113,24.648 v 132.039 c 47.215,0 106.492,-13.379 106.492,-13.379 C 842.102,563.035 929.203,505 929.203,505 c 37.938,-23.848 53.145,-45.156 53.145,-45.156 41.072,-48.703 10.312,-75.899 10.312,-75.899 l -23.898,20.703 c -23.262,11.836 -48.973,26.415 -48.973,26.415 0,0 -11.094,3.566 -19.004,5.246"
         id="path434" /></clipPath><clipPath
       clipPathUnits="userSpaceOnUse"
       id="clipPath450"><path
         d="m 636.945,1043.21 c -12.226,1.05 -52.023,-4.18 -65.312,-63.733 -13.281,-59.559 -5.762,-129.586 4.715,-172.192 10.472,-42.601 111.058,31.09 111.058,31.09 0,0 -25.324,55.363 -36.847,88.543 -11.524,33.184 -15.704,75.982 -8.907,98.492 6.817,22.52 -4.707,17.8 -4.707,17.8"
         id="path448" /></clipPath></defs><sodipodi:namedview
     pagecolor="#ffffff"
     bordercolor="#666666"
     borderopacity="1"
     objecttolerance="10"
     gridtolerance="10"
     guidetolerance="10"
     inkscape:pageopacity="0"
     inkscape:pageshadow="2"
     inkscape:window-width="640"
     inkscape:window-height="480"
     id="namedview4" /><g
     id="g10"
     inkscape:groupmode="layer"
     inkscape:label="ink_ext_XXXXXX"
     transform="matrix(1.3333333,0,0,-1.3333333,0,162.86667)"><g
       id="g12"
       transform="scale(0.1)"><g
         id="g14"><g
           id="g16"
           clip-path="url(#clipPath20)"><path
             d="M 311.789,362.52 254.734,479.512 222.922,463.984 279.98,347"
             style="fill:#317a34;fill-opacity:1;fill-rule:nonzero;stroke:none"
             id="path22" /><path
             d="m 315.258,364.219 -56.91,116.679 -5.371,-2.617 56.91,-116.691"
             style="fill:#317a34;fill-opacity:1;fill-rule:nonzero;stroke:none"
             id="path24" /><path
             d="m 320.559,366.797 -56.914,116.687 -5.368,-2.625 56.911,-116.679"
             style="fill:#367d34;fill-opacity:1;fill-rule:nonzero;stroke:none"
             id="path26" /><path
             d="m 325.859,369.383 -56.91,116.68 -5.371,-2.618 56.906,-116.687"
             style="fill:#3d803b;fill-opacity:1;fill-rule:nonzero;stroke:none"
             id="path28" /><path
             d="m 331.16,371.973 -56.91,116.679 -5.371,-2.617 56.91,-116.68"
             style="fill:#438440;fill-opacity:1;fill-rule:nonzero;stroke:none"
             id="path30" /><path
             d="m 336.457,374.551 -56.906,116.679 -5.367,-2.609 56.902,-116.687"
             style="fill:#498746;fill-opacity:1;fill-rule:nonzero;stroke:none"
             id="path32" /><path
             d="m 341.762,377.137 -56.91,116.691 -5.372,-2.629 56.911,-116.679"
             style="fill:#4f8a4a;fill-opacity:1;fill-rule:nonzero;stroke:none"
             id="path34" /><path
             d="m 347.063,379.727 -56.915,116.679 -5.367,-2.617 56.91,-116.68"
             style="fill:#568d4e;fill-opacity:1;fill-rule:nonzero;stroke:none"
             id="path36" /><path
             d="m 352.359,382.305 -56.906,116.687 -5.371,-2.617 56.906,-116.687"
             style="fill:#5c9152;fill-opacity:1;fill-rule:nonzero;stroke:none"
             id="path38" /><path
             d="m 357.664,384.902 -56.91,116.68 -5.371,-2.617 56.91,-116.692"
             style="fill:#639558;fill-opacity:1;fill-rule:nonzero;stroke:none"
             id="path40" /><path
             d="m 362.969,387.48 -56.914,116.688 -5.367,-2.625 56.902,-116.68"
             style="fill:#6a985c;fill-opacity:1;fill-rule:nonzero;stroke:none"
             id="path42" /><path
             d="m 368.266,390.066 -56.911,116.68 -5.371,-2.617 56.911,-116.688"
             style="fill:#709c60;fill-opacity:1;fill-rule:nonzero;stroke:none"
             id="path44" /><path
             d="m 373.566,392.656 -56.914,116.68 -5.367,-2.617 56.91,-116.68"
             style="fill:#759f66;fill-opacity:1;fill-rule:nonzero;stroke:none"
             id="path46" /><path
             d="m 378.863,395.234 -56.906,116.688 -5.371,-2.617 56.906,-116.688"
             style="fill:#7ca36b;fill-opacity:1;fill-rule:nonzero;stroke:none"
             id="path48" /><path
             d="m 384.168,397.82 -56.91,116.692 -5.371,-2.629 56.91,-116.68"
             style="fill:#82a671;fill-opacity:1;fill-rule:nonzero;stroke:none"
             id="path50" /><path
             d="m 389.473,400.41 -56.914,116.68 -5.368,-2.617 56.911,-116.68"
             style="fill:#89aa77;fill-opacity:1;fill-rule:nonzero;stroke:none"
             id="path52" /><path
             d="m 394.77,402.988 -56.911,116.688 -5.371,-2.617 56.91,-116.68"
             style="fill:#90ad7b;fill-opacity:1;fill-rule:nonzero;stroke:none"
             id="path54" /><path
             d="m 400.07,405.586 -56.91,116.68 -5.371,-2.618 56.91,-116.691"
             style="fill:#95b081;fill-opacity:1;fill-rule:nonzero;stroke:none"
             id="path56" /><path
             d="m 405.375,408.164 -56.914,116.688 -5.371,-2.625 56.906,-116.68"
             style="fill:#9bb488;fill-opacity:1;fill-rule:nonzero;stroke:none"
             id="path58" /><path
             d="m 410.672,410.75 -56.91,116.68 -5.371,-2.617 56.91,-116.688"
             style="fill:#a1b98d;fill-opacity:1;fill-rule:nonzero;stroke:none"
             id="path60" /><path
             d="m 415.977,413.34 -56.911,116.68 -5.375,-2.618 56.914,-116.679"
             style="fill:#a5bb92;fill-opacity:1;fill-rule:nonzero;stroke:none"
             id="path62" /><path
             d="m 421.277,415.926 -56.914,116.679 -5.371,-2.617 56.91,-116.687"
             style="fill:#acbf97;fill-opacity:1;fill-rule:nonzero;stroke:none"
             id="path64" /><path
             d="m 426.574,418.504 -56.91,116.691 -5.367,-2.629 56.906,-116.679"
             style="fill:#b1c39d;fill-opacity:1;fill-rule:nonzero;stroke:none"
             id="path66" /><path
             d="m 431.879,421.094 -56.914,116.679 -5.371,-2.617 56.914,-116.679"
             style="fill:#b7c7a2;fill-opacity:1;fill-rule:nonzero;stroke:none"
             id="path68" /><path
             d="m 437.176,423.672 -56.91,116.687 -5.371,-2.617 56.914,-116.679"
             style="fill:#bccba9;fill-opacity:1;fill-rule:nonzero;stroke:none"
             id="path70" /><path
             d="m 442.48,426.258 -56.91,116.691 -5.379,-2.617 56.922,-116.691"
             style="fill:#c2cfb0;fill-opacity:1;fill-rule:nonzero;stroke:none"
             id="path72" /><path
             d="m 447.781,428.848 -56.914,116.687 -5.371,-2.625 56.918,-116.68"
             style="fill:#c7d2b6;fill-opacity:1;fill-rule:nonzero;stroke:none"
             id="path74" /><path
             d="m 453.078,431.434 -56.906,116.679 -5.371,-2.617 56.914,-116.68"
             style="fill:#cdd7bc;fill-opacity:1;fill-rule:nonzero;stroke:none"
             id="path76" /><path
             d="m 458.383,434.023 -56.91,116.68 -5.375,-2.617 56.918,-116.691"
             style="fill:#d4dcc2;fill-opacity:1;fill-rule:nonzero;stroke:none"
             id="path78" /><path
             d="m 463.691,436.609 -56.921,116.68 -5.368,-2.617 56.911,-116.688"
             style="fill:#dae0cb;fill-opacity:1;fill-rule:nonzero;stroke:none"
             id="path80" /><path
             d="m 468.988,439.188 -56.914,116.679 -5.367,-2.617 56.91,-116.68"
             style="fill:#dfe4d0;fill-opacity:1;fill-rule:nonzero;stroke:none"
             id="path82" /><path
             d="m 474.289,441.777 -56.918,116.68 -5.367,-2.617 56.914,-116.692"
             style="fill:#e4e8d7;fill-opacity:1;fill-rule:nonzero;stroke:none"
             id="path84" /><path
             d="m 479.594,444.363 -56.918,116.68 -5.367,-2.617 56.91,-116.68"
             style="fill:#eaedde;fill-opacity:1;fill-rule:nonzero;stroke:none"
             id="path86" /><path
             d="m 484.891,446.941 -56.914,116.68 -5.368,-2.605 56.911,-116.692"
             style="fill:#eff1e6;fill-opacity:1;fill-rule:nonzero;stroke:none"
             id="path88" /><path
             d="m 490.191,449.531 -56.914,116.688 -5.371,-2.625 56.914,-116.68"
             style="fill:#f4f6ee;fill-opacity:1;fill-rule:nonzero;stroke:none"
             id="path90" /><path
             d="m 495.492,452.117 -56.91,116.68 -5.371,-2.617 56.91,-116.68"
             style="fill:#f9f9f4;fill-opacity:1;fill-rule:nonzero;stroke:none"
             id="path92" /><path
             d="m 500.793,454.695 -56.906,116.692 -5.379,-2.617 56.914,-116.692"
             style="fill:#fdfcfa;fill-opacity:1;fill-rule:nonzero;stroke:none"
             id="path94" /><path
             d="m 506.098,457.293 -56.914,116.68 -5.371,-2.618 56.914,-116.687"
             style="fill:#ffffff;fill-opacity:1;fill-rule:nonzero;stroke:none"
             id="path96" /></g></g><path
         d="m 113.117,422.059 c 0,-7.606 -6.156,-13.758 -13.7459,-13.758 -7.5938,0 -13.7539,6.152 -13.7539,13.758 0,7.589 6.1601,13.742 13.7539,13.742 7.5899,0 13.7459,-6.153 13.7459,-13.742 z m 1064.453,0 c 0,-7.606 -6.16,-13.758 -13.74,-13.758 -7.59,0 -13.75,6.152 -13.75,13.758 0,7.589 6.16,13.742 13.75,13.742 7.58,0 13.74,-6.153 13.74,-13.742 z"
         style="fill:none;stroke:#100f0d;stroke-width:12.73;stroke-linecap:butt;stroke-linejoin:miter;stroke-miterlimit:4;stroke-dasharray:none;stroke-opacity:1"
         id="path98" /><path
         d="m 666.547,889.59 3.465,-6.207 c -7.578,17.523 -11.699,27.887 -11.903,28.324 2.547,-6.957 5.332,-14.32 8.438,-22.117"
         style="fill:#100f0d;fill-opacity:1;fill-rule:nonzero;stroke:none"
         id="path100" /><path
         d="m 666.547,889.59 3.465,-6.207 c -7.578,17.523 -11.699,27.887 -11.903,28.324 2.547,-6.957 5.332,-14.32 8.438,-22.117 z"
         style="fill:none;stroke:#9f9aa7;stroke-width:11.162;stroke-linecap:butt;stroke-linejoin:miter;stroke-miterlimit:4;stroke-dasharray:none;stroke-opacity:1"
         id="path102" /><path
         d="m 658.109,911.707 c 0,0 0,0 0,0.023 v -0.023"
         style="fill:#100f0d;fill-opacity:1;fill-rule:nonzero;stroke:none"
         id="path104" /><path
         d="m 658.109,911.707 c 0,0 0,0 0,0.023 z"
         style="fill:none;stroke:#9f9aa7;stroke-width:11.162;stroke-linecap:butt;stroke-linejoin:miter;stroke-miterlimit:4;stroke-dasharray:none;stroke-opacity:1"
         id="path106" /><path
         d="m 498.07,690.605 c 44.946,78.739 78.969,153.614 95.899,192.778 7.554,17.523 11.699,27.887 11.875,28.324 v 0.023 c 2.98,8.211 5.496,15.743 7.722,22.731 12.832,40.445 14.278,60.941 14.278,60.969 l 2.969,48.89 c 0.371,0.04 0.722,0.06 1.093,0.06 34.063,0 62.305,-49.224 62.305,-109.919 4.824,-154.883 -59.746,-277.008 -79.914,-310.844"
         style="fill:#317a34;fill-opacity:1;fill-rule:nonzero;stroke:none"
         id="path108" /><path
         d="m 649.641,623.719 c -20.164,33.808 -84.172,154.804 -79.328,309.703 0,60.719 28.257,109.918 62.335,109.918 0.364,0 0.723,-0.04 1.094,-0.04 l 2.949,-48.925 c 0,0 1.426,-20.504 14.289,-60.953 2.215,-7 4.747,-14.5 7.696,-22.692 l 0.008,-0.066 c 0.195,-0.43 4.336,-10.812 11.894,-28.32 16.914,-39.18 50.938,-114.008 95.86,-192.766"
         style="fill:#d91b32;fill-opacity:1;fill-rule:nonzero;stroke:none"
         id="path110" /><path
         d="m 375.367,505.215 3.637,6.094 c -11.391,-15.313 -18.305,-24.043 -18.606,-24.434 4.762,5.652 9.75,11.746 14.969,18.34"
         style="fill:#100f0d;fill-opacity:1;fill-rule:nonzero;stroke:none"
         id="path112" /><path
         d="m 375.367,505.215 3.637,6.094 c -11.391,-15.313 -18.305,-24.043 -18.606,-24.434 4.762,5.652 9.75,11.746 14.969,18.34 z"
         style="fill:none;stroke:#9f9aa7;stroke-width:11.162;stroke-linecap:butt;stroke-linejoin:miter;stroke-miterlimit:4;stroke-dasharray:none;stroke-opacity:1"
         id="path114" /><path
         d="m 360.398,486.875 c 0,0 -0.015,-0.031 -0.035,-0.031 l 0.035,0.031"
         style="fill:#100f0d;fill-opacity:1;fill-rule:nonzero;stroke:none"
         id="path116" /><path
         d="m 360.398,486.875 c 0,0 -0.015,-0.031 -0.035,-0.031 z"
         style="fill:none;stroke:#9f9aa7;stroke-width:11.162;stroke-linecap:butt;stroke-linejoin:miter;stroke-miterlimit:4;stroke-dasharray:none;stroke-opacity:1"
         id="path118" /><path
         d="M 614.145,628.383 C 595.188,592.898 523.031,473.465 385.004,399.656 c -53.082,-30.683 -111.012,-29.765 -128.961,1.321 -0.18,0.332 -7.816,8.144 -7.996,8.503 l 46.121,22.461 c 0,0 19.73,9.114 48.344,41.27 4.961,5.559 10.203,11.672 15.812,18.488 l 0.047,0.067 c 0.281,0.351 7.188,9.367 18.512,25.078 25.371,35.234 72.922,104.047 118.125,184.804"
         style="fill:#317a34;fill-opacity:1;fill-rule:nonzero;stroke:none"
         id="path120" /><path
         d="m 853.832,445.242 -7.109,0.071 c 18.933,-2.2 29.988,-3.782 30.437,-3.848 -7.273,1.269 -15.008,2.539 -23.328,3.777"
         style="fill:#100f0d;fill-opacity:1;fill-rule:nonzero;stroke:none"
         id="path122" /><path
         d="m 853.832,445.242 -7.109,0.071 c 18.933,-2.2 29.988,-3.782 30.437,-3.848 -7.273,1.269 -15.008,2.539 -23.328,3.777 z"
         style="fill:none;stroke:#9f9aa7;stroke-width:11.162;stroke-linecap:butt;stroke-linejoin:miter;stroke-miterlimit:4;stroke-dasharray:none;stroke-opacity:1"
         id="path124" /><path
         d="m 877.16,441.465 c 0.031,0 0.051,0 0.059,-0.02 0,0 -0.028,0.02 -0.059,0.02"
         style="fill:#100f0d;fill-opacity:1;fill-rule:nonzero;stroke:none"
         id="path126" /><path
         d="m 877.16,441.465 c 0.031,0 0.051,0 0.059,-0.02 0,0 -0.028,0.02 -0.059,0.02 z"
         style="fill:none;stroke:#9f9aa7;stroke-width:11.162;stroke-linecap:butt;stroke-linejoin:miter;stroke-miterlimit:4;stroke-dasharray:none;stroke-opacity:1"
         id="path128" /><path
         d="m 649.641,623.719 c 19.199,-34.395 92.656,-151.641 229.191,-224.903 52.566,-30.351 109.297,-30.496 126.348,-0.976 0.2,0.312 0.33,0.625 0.5,0.976 l -40.844,26.985 c -0.039,0.027 -17.059,11.523 -45.672,42.89 -4.953,5.411 -10.195,11.348 -15.82,18.008 l -0.031,0.047 c -0.293,0.383 -7.176,9.133 -18.583,24.434 -25.48,34.238 -73.292,101.113 -119.015,179.425"
         style="fill:#d91b32;fill-opacity:1;fill-rule:nonzero;stroke:none"
         id="path130" /><path
         d="m 360.398,486.875 c 0,0 -0.015,-0.031 -0.035,-0.031 l 0.035,0.031"
         style="fill:#100f0d;fill-opacity:1;fill-rule:nonzero;stroke:none"
         id="path132" /><path
         d="m 360.398,486.875 c 0,0 -0.015,-0.031 -0.035,-0.031 z"
         style="fill:none;stroke:#9f9aa7;stroke-width:11.162;stroke-linecap:butt;stroke-linejoin:miter;stroke-miterlimit:4;stroke-dasharray:none;stroke-opacity:1"
         id="path134" /><g
         id="g136"><g
           id="g138"
           clip-path="url(#clipPath142)"><path
             d="m 900.188,390.586 h 5.597 v 54.578 h -5.597 v -54.578"
             style="fill:#cde9af;fill-opacity:1;fill-rule:nonzero;stroke:none"
             id="path144" /><path
             d="m 906.066,390.586 h 5.598 v 54.578 h -5.598 v -54.578"
             style="fill:#c5e3a7;fill-opacity:1;fill-rule:nonzero;stroke:none"
             id="path146" /><path
             d="m 911.945,390.586 h 5.598 v 54.578 h -5.598 v -54.578"
             style="fill:#bcde9f;fill-opacity:1;fill-rule:nonzero;stroke:none"
             id="path148" /><path
             d="m 917.824,390.586 h 5.598 v 54.578 h -5.598 v -54.578"
             style="fill:#b3d596;fill-opacity:1;fill-rule:nonzero;stroke:none"
             id="path150" /><path
             d="m 923.703,390.586 h 5.598 v 54.578 h -5.598 v -54.578"
             style="fill:#aace8e;fill-opacity:1;fill-rule:nonzero;stroke:none"
             id="path152" /><path
             d="m 929.582,390.586 h 5.598 v 54.578 h -5.598 v -54.578"
             style="fill:#a2c888;fill-opacity:1;fill-rule:nonzero;stroke:none"
             id="path154" /><path
             d="m 935.461,390.586 h 5.598 v 54.578 h -5.598 v -54.578"
             style="fill:#99c181;fill-opacity:1;fill-rule:nonzero;stroke:none"
             id="path156" /><path
             d="m 941.332,390.586 h 5.606 v 54.578 h -5.606 v -54.578"
             style="fill:#90bb79;fill-opacity:1;fill-rule:nonzero;stroke:none"
             id="path158" /><path
             d="m 947.211,390.586 h 5.594 v 54.578 h -5.594 v -54.578"
             style="fill:#85b472;fill-opacity:1;fill-rule:nonzero;stroke:none"
             id="path160" /><path
             d="m 953.098,390.586 h 5.597 v 54.578 h -5.597 v -54.578"
             style="fill:#7cae6d;fill-opacity:1;fill-rule:nonzero;stroke:none"
             id="path162" /><path
             d="m 958.969,390.586 h 5.605 v 54.578 h -5.605 v -54.578"
             style="fill:#73a766;fill-opacity:1;fill-rule:nonzero;stroke:none"
             id="path164" /><path
             d="m 964.848,390.586 h 5.593 v 54.578 h -5.593 v -54.578"
             style="fill:#6ba160;fill-opacity:1;fill-rule:nonzero;stroke:none"
             id="path166" /><path
             d="m 970.727,390.586 h 5.593 v 54.578 h -5.593 v -54.578"
             style="fill:#629b5c;fill-opacity:1;fill-rule:nonzero;stroke:none"
             id="path168" /><path
             d="m 976.605,390.586 h 5.594 v 54.578 h -5.594 v -54.578"
             style="fill:#589456;fill-opacity:1;fill-rule:nonzero;stroke:none"
             id="path170" /><path
             d="m 982.473,390.586 h 5.605 v 54.578 h -5.605 v -54.578"
             style="fill:#4f8d51;fill-opacity:1;fill-rule:nonzero;stroke:none"
             id="path172" /><path
             d="m 988.363,390.586 h 5.594 v 54.578 h -5.594 v -54.578"
             style="fill:#46884c;fill-opacity:1;fill-rule:nonzero;stroke:none"
             id="path174" /><path
             d="m 994.23,390.586 h 5.606 v 54.578 h -5.606 v -54.578"
             style="fill:#3c8346;fill-opacity:1;fill-rule:nonzero;stroke:none"
             id="path176" /><path
             d="m 1000.11,390.586 h 5.6 v 54.578 h -5.6 v -54.578"
             style="fill:#337c41;fill-opacity:1;fill-rule:nonzero;stroke:none"
             id="path178" /></g></g><path
         d="m 623.898,584.824 h 17.825 V 467.5 h -17.825 v 117.324"
         style="fill:#ffffff;fill-opacity:1;fill-rule:nonzero;stroke:none"
         id="path180" /><g
         id="g182"><g
           id="g184"
           clip-path="url(#clipPath188)"><path
             d="m 631.555,593.367 h 49.179 v -196.16 h -49.179 v 196.16"
             style="fill:#ffffff;fill-opacity:1;fill-rule:nonzero;stroke:none"
             id="path190" /></g></g><g
         id="g192"><g
           id="g194"
           clip-path="url(#clipPath198)"><g
             id="g200"
             clip-path="url(#clipPath204)"><path
               d="m 678.645,397.195 h 5.605 v 195.938 h -5.605 V 397.195"
               style="fill:#ffffff;fill-opacity:1;fill-rule:nonzero;stroke:none"
               id="path206" /><path
               d="m 684.445,397.195 h 5.598 v 195.938 h -5.598 V 397.195"
               style="fill:#fefefd;fill-opacity:1;fill-rule:nonzero;stroke:none"
               id="path208" /><path
               d="m 690.246,397.195 h 5.598 v 195.938 h -5.598 V 397.195"
               style="fill:#fbfcfa;fill-opacity:1;fill-rule:nonzero;stroke:none"
               id="path210" /><path
               d="m 696.027,397.195 h 5.606 v 195.938 h -5.606 V 397.195"
               style="fill:#faf9f6;fill-opacity:1;fill-rule:nonzero;stroke:none"
               id="path212" /><path
               d="m 701.828,397.195 h 5.606 v 195.938 h -5.606 V 397.195"
               style="fill:#f7f8f3;fill-opacity:1;fill-rule:nonzero;stroke:none"
               id="path214" /><path
               d="m 707.621,397.195 h 5.594 v 195.938 h -5.594 V 397.195"
               style="fill:#f4f5ed;fill-opacity:1;fill-rule:nonzero;stroke:none"
               id="path216" /><path
               d="m 713.41,397.195 h 5.606 V 593.133 H 713.41 V 397.195"
               style="fill:#f1f2e9;fill-opacity:1;fill-rule:nonzero;stroke:none"
               id="path218" /><path
               d="m 719.211,397.195 h 5.598 v 195.938 h -5.598 V 397.195"
               style="fill:#ecefe3;fill-opacity:1;fill-rule:nonzero;stroke:none"
               id="path220" /><path
               d="m 725.004,397.195 h 5.594 v 195.938 h -5.594 V 397.195"
               style="fill:#eaece0;fill-opacity:1;fill-rule:nonzero;stroke:none"
               id="path222" /><path
               d="m 730.793,397.195 h 5.605 v 195.938 h -5.605 V 397.195"
               style="fill:#e7eadc;fill-opacity:1;fill-rule:nonzero;stroke:none"
               id="path224" /><path
               d="m 736.594,397.195 h 5.597 v 195.938 h -5.597 V 397.195"
               style="fill:#e3e7d8;fill-opacity:1;fill-rule:nonzero;stroke:none"
               id="path226" /><path
               d="m 742.375,397.195 h 5.605 v 195.938 h -5.605 V 397.195"
               style="fill:#e0e4d3;fill-opacity:1;fill-rule:nonzero;stroke:none"
               id="path228" /><path
               d="m 748.176,397.195 h 5.597 v 195.938 h -5.597 V 397.195"
               style="fill:#dde2cf;fill-opacity:1;fill-rule:nonzero;stroke:none"
               id="path230" /><path
               d="m 753.969,397.195 h 5.594 v 195.938 h -5.594 V 397.195"
               style="fill:#dadecc;fill-opacity:1;fill-rule:nonzero;stroke:none"
               id="path232" /><path
               d="m 759.758,397.195 h 5.605 v 195.938 h -5.605 V 397.195"
               style="fill:#d7ddc8;fill-opacity:1;fill-rule:nonzero;stroke:none"
               id="path234" /><path
               d="m 765.559,397.195 h 5.597 v 195.938 h -5.597 V 397.195"
               style="fill:#d1d8c3;fill-opacity:1;fill-rule:nonzero;stroke:none"
               id="path236" /><path
               d="m 771.359,397.195 h 5.586 v 195.938 h -5.586 V 397.195"
               style="fill:#cdd7bf;fill-opacity:1;fill-rule:nonzero;stroke:none"
               id="path238" /><path
               d="m 777.141,397.195 h 5.597 v 195.938 h -5.597 V 397.195"
               style="fill:#cad5bb;fill-opacity:1;fill-rule:nonzero;stroke:none"
               id="path240" /><path
               d="m 782.941,397.195 h 5.598 v 195.938 h -5.598 V 397.195"
               style="fill:#c5d1b7;fill-opacity:1;fill-rule:nonzero;stroke:none"
               id="path242" /><path
               d="m 788.723,397.195 h 5.605 v 195.938 h -5.605 V 397.195"
               style="fill:#c2cfb2;fill-opacity:1;fill-rule:nonzero;stroke:none"
               id="path244" /><path
               d="m 794.523,397.195 h 5.606 v 195.938 h -5.606 V 397.195"
               style="fill:#bfcdaf;fill-opacity:1;fill-rule:nonzero;stroke:none"
               id="path246" /><path
               d="m 800.316,397.195 h 5.606 v 195.938 h -5.606 V 397.195"
               style="fill:#bbcaab;fill-opacity:1;fill-rule:nonzero;stroke:none"
               id="path248" /><path
               d="m 806.117,397.195 h 5.594 v 195.938 h -5.594 V 397.195"
               style="fill:#b9c6a7;fill-opacity:1;fill-rule:nonzero;stroke:none"
               id="path250" /><path
               d="m 811.906,397.195 h 5.598 v 195.938 h -5.598 V 397.195"
               style="fill:#b4c5a3;fill-opacity:1;fill-rule:nonzero;stroke:none"
               id="path252" /><path
               d="m 817.699,397.195 h 5.594 v 195.938 h -5.594 V 397.195"
               style="fill:#b1c1a0;fill-opacity:1;fill-rule:nonzero;stroke:none"
               id="path254" /><path
               d="m 823.488,397.195 h 5.598 v 195.938 h -5.598 V 397.195"
               style="fill:#acc09b;fill-opacity:1;fill-rule:nonzero;stroke:none"
               id="path256" /><path
               d="m 829.289,397.195 h 5.598 v 195.938 h -5.598 V 397.195"
               style="fill:#a9be98;fill-opacity:1;fill-rule:nonzero;stroke:none"
               id="path258" /><path
               d="m 835.09,397.195 h 5.598 V 593.133 H 835.09 V 397.195"
               style="fill:#a6bc95;fill-opacity:1;fill-rule:nonzero;stroke:none"
               id="path260" /><path
               d="m 840.883,397.195 h 5.594 v 195.938 h -5.594 V 397.195"
               style="fill:#a3b992;fill-opacity:1;fill-rule:nonzero;stroke:none"
               id="path262" /><path
               d="m 846.672,397.195 h 5.598 v 195.938 h -5.598 V 397.195"
               style="fill:#a0b78f;fill-opacity:1;fill-rule:nonzero;stroke:none"
               id="path264" /><path
               d="m 852.465,397.195 h 5.594 v 195.938 h -5.594 V 397.195"
               style="fill:#9bb58c;fill-opacity:1;fill-rule:nonzero;stroke:none"
               id="path266" /><path
               d="m 858.254,397.195 h 5.605 v 195.938 h -5.605 V 397.195"
               style="fill:#98b289;fill-opacity:1;fill-rule:nonzero;stroke:none"
               id="path268" /><path
               d="m 864.047,397.195 h 5.605 v 195.938 h -5.605 V 397.195"
               style="fill:#94b085;fill-opacity:1;fill-rule:nonzero;stroke:none"
               id="path270" /><path
               d="m 869.848,397.195 h 5.593 v 195.938 h -5.593 V 397.195"
               style="fill:#90ac83;fill-opacity:1;fill-rule:nonzero;stroke:none"
               id="path272" /><path
               d="m 875.637,397.195 h 5.597 v 195.938 h -5.597 V 397.195"
               style="fill:#8caa7e;fill-opacity:1;fill-rule:nonzero;stroke:none"
               id="path274" /><path
               d="m 881.438,397.195 h 5.597 v 195.938 h -5.597 V 397.195"
               style="fill:#88a87c;fill-opacity:1;fill-rule:nonzero;stroke:none"
               id="path276" /><path
               d="m 887.219,397.195 h 5.605 v 195.938 h -5.605 V 397.195"
               style="fill:#84a679;fill-opacity:1;fill-rule:nonzero;stroke:none"
               id="path278" /><path
               d="m 893.02,397.195 h 5.597 V 593.133 H 893.02 V 397.195"
               style="fill:#80a574;fill-opacity:1;fill-rule:nonzero;stroke:none"
               id="path280" /><path
               d="m 898.813,397.195 h 5.593 v 195.938 h -5.593 V 397.195"
               style="fill:#7ca271;fill-opacity:1;fill-rule:nonzero;stroke:none"
               id="path282" /><path
               d="m 904.613,397.195 h 5.594 v 195.938 h -5.594 V 397.195"
               style="fill:#78a06e;fill-opacity:1;fill-rule:nonzero;stroke:none"
               id="path284" /><path
               d="M 910.402,397.195 H 916 v 195.938 h -5.598 V 397.195"
               style="fill:#749e6b;fill-opacity:1;fill-rule:nonzero;stroke:none"
               id="path286" /><path
               d="m 916.195,397.195 h 5.606 v 195.938 h -5.606 V 397.195"
               style="fill:#709c69;fill-opacity:1;fill-rule:nonzero;stroke:none"
               id="path288" /><path
               d="m 921.984,397.195 h 5.606 v 195.938 h -5.606 V 397.195"
               style="fill:#6c9965;fill-opacity:1;fill-rule:nonzero;stroke:none"
               id="path290" /><path
               d="m 927.777,397.195 h 5.606 v 195.938 h -5.606 V 397.195"
               style="fill:#689763;fill-opacity:1;fill-rule:nonzero;stroke:none"
               id="path292" /><path
               d="m 933.578,397.195 h 5.594 v 195.938 h -5.594 V 397.195"
               style="fill:#639560;fill-opacity:1;fill-rule:nonzero;stroke:none"
               id="path294" /><path
               d="m 939.367,397.195 h 5.598 v 195.938 h -5.598 V 397.195"
               style="fill:#5e935b;fill-opacity:1;fill-rule:nonzero;stroke:none"
               id="path296" /><path
               d="m 945.16,397.195 h 5.594 V 593.133 H 945.16 V 397.195"
               style="fill:#5a905a;fill-opacity:1;fill-rule:nonzero;stroke:none"
               id="path298" /><path
               d="m 950.961,397.195 h 5.594 v 195.938 h -5.594 V 397.195"
               style="fill:#558e57;fill-opacity:1;fill-rule:nonzero;stroke:none"
               id="path300" /><path
               d="m 956.75,397.195 h 5.598 V 593.133 H 956.75 V 397.195"
               style="fill:#518b54;fill-opacity:1;fill-rule:nonzero;stroke:none"
               id="path302" /><path
               d="m 962.543,397.195 h 5.594 v 195.938 h -5.594 V 397.195"
               style="fill:#4e8a53;fill-opacity:1;fill-rule:nonzero;stroke:none"
               id="path304" /><path
               d="m 968.332,397.195 h 5.598 v 195.938 h -5.598 V 397.195"
               style="fill:#498750;fill-opacity:1;fill-rule:nonzero;stroke:none"
               id="path306" /><path
               d="m 974.133,397.195 h 5.597 v 195.938 h -5.597 V 397.195"
               style="fill:#44854d;fill-opacity:1;fill-rule:nonzero;stroke:none"
               id="path308" /><path
               d="m 979.926,397.195 h 5.594 v 195.938 h -5.594 V 397.195"
               style="fill:#3f834b;fill-opacity:1;fill-rule:nonzero;stroke:none"
               id="path310" /><path
               d="m 985.715,397.195 h 5.605 v 195.938 h -5.605 V 397.195"
               style="fill:#3b8048;fill-opacity:1;fill-rule:nonzero;stroke:none"
               id="path312" /><path
               d="m 991.516,397.195 h 5.597 v 195.938 h -5.597 V 397.195"
               style="fill:#377e44;fill-opacity:1;fill-rule:nonzero;stroke:none"
               id="path314" /><path
               d="m 997.309,397.195 h 5.591 v 195.938 h -5.591 V 397.195"
               style="fill:#337c41;fill-opacity:1;fill-rule:nonzero;stroke:none"
               id="path316" /></g></g></g><g
         id="g318"><g
           id="g320"
           clip-path="url(#clipPath324)"><g
             id="g326"
             clip-path="url(#clipPath330)"><path
               d="m 1003.19,397.195 h 2.79 v 195.938 h -2.79 V 397.195"
               style="fill:#337c41;fill-opacity:1;fill-rule:nonzero;stroke:none"
               id="path332" /><path
               d="m 1006.26,397.195 h 2.81 v 195.938 h -2.81 V 397.195"
               style="fill:#327c3c;fill-opacity:1;fill-rule:nonzero;stroke:none"
               id="path334" /><path
               d="m 1009.36,397.195 h 2.79 v 195.938 h -2.79 V 397.195"
               style="fill:#317b39;fill-opacity:1;fill-rule:nonzero;stroke:none"
               id="path336" /></g></g></g><path
         d="m 900.785,436.309 c -114.68,24.363 -256.113,24.648 -256.113,24.648 v 132.039 c 47.215,0 106.492,-13.379 106.492,-13.379 C 842.102,563.035 929.203,505 929.203,505 c 37.938,-23.848 53.145,-45.156 53.145,-45.156 41.072,-48.703 10.312,-75.899 10.312,-75.899 l -23.898,20.703 c -23.262,11.836 -48.973,26.415 -48.973,26.415 0,0 -11.094,3.566 -19.004,5.246"
         style="fill:#d91b32;fill-opacity:1;fill-rule:nonzero;stroke:none"
         id="path338" /><path
         d="m 825.754,563.457 -161.816,31.816 -75.333,-0.949 -33.601,-56.238 -85.117,-86.641 c 18.367,5.067 75.664,7.442 118.875,8.535 l 147.832,-9.953 89.16,113.43"
         style="fill:#ffffff;fill-opacity:1;fill-rule:nonzero;stroke:none"
         id="path340" /><g
         id="g342"><g
           id="g344"
           clip-path="url(#clipPath348)"><g
             id="g350"
             clip-path="url(#clipPath354)"><path
               d="m 710.422,411.348 124.992,165.867 -4.629,3.488 -124.98,-165.871"
               style="fill:#ffffff;fill-opacity:1;fill-rule:nonzero;stroke:none"
               id="path356" /><path
               d="m 715.07,407.852 124.981,165.867 -4.629,3.476 -124.981,-165.859"
               style="fill:#fffcfa;fill-opacity:1;fill-rule:nonzero;stroke:none"
               id="path358" /><path
               d="m 719.711,404.355 124.98,165.868 -4.621,3.476 L 715.09,407.84"
               style="fill:#fef8f3;fill-opacity:1;fill-rule:nonzero;stroke:none"
               id="path360" /><path
               d="m 724.348,400.848 125,165.871 -4.629,3.476 L 719.73,404.344"
               style="fill:#fef2ed;fill-opacity:1;fill-rule:nonzero;stroke:none"
               id="path362" /><path
               d="m 728.996,397.352 124.992,165.859 -4.629,3.488 L 724.367,400.84"
               style="fill:#feede6;fill-opacity:1;fill-rule:nonzero;stroke:none"
               id="path364" /><path
               d="m 733.637,393.855 124.988,165.86 -4.617,3.488 -124.992,-165.859"
               style="fill:#fde6db;fill-opacity:1;fill-rule:nonzero;stroke:none"
               id="path366" /><path
               d="m 738.273,390.352 125,165.867 -4.628,3.488 -124.989,-165.859"
               style="fill:#fce0d4;fill-opacity:1;fill-rule:nonzero;stroke:none"
               id="path368" /><path
               d="m 742.934,386.855 124.98,165.868 -4.621,3.476 -124.98,-165.859"
               style="fill:#fbdccb;fill-opacity:1;fill-rule:nonzero;stroke:none"
               id="path370" /><path
               d="m 747.57,383.359 124.993,165.86 -4.629,3.484 -124.993,-165.859"
               style="fill:#fad5c4;fill-opacity:1;fill-rule:nonzero;stroke:none"
               id="path372" /><path
               d="m 752.219,379.863 124.98,165.86 -4.629,3.484 L 747.59,383.34"
               style="fill:#facfbc;fill-opacity:1;fill-rule:nonzero;stroke:none"
               id="path374" /><path
               d="M 756.848,376.367 881.84,542.215 877.219,545.711 752.23,379.844"
               style="fill:#f9c9b5;fill-opacity:1;fill-rule:nonzero;stroke:none"
               id="path376" /><path
               d="m 761.496,372.859 124.992,165.86 -4.621,3.488 -124.988,-165.859"
               style="fill:#f8c5ae;fill-opacity:1;fill-rule:nonzero;stroke:none"
               id="path378" /><path
               d="m 766.145,369.363 124.992,165.86 -4.629,3.488 -124.992,-165.859"
               style="fill:#f8bfa7;fill-opacity:1;fill-rule:nonzero;stroke:none"
               id="path380" /><path
               d="m 770.785,365.859 124.988,165.868 -4.617,3.476 -124.992,-165.848"
               style="fill:#f6b99f;fill-opacity:1;fill-rule:nonzero;stroke:none"
               id="path382" /><path
               d="m 775.422,362.363 124.992,165.86 -4.621,3.484 L 770.805,365.84"
               style="fill:#f5b298;fill-opacity:1;fill-rule:nonzero;stroke:none"
               id="path384" /><path
               d="m 780.07,358.867 124.993,165.86 -4.622,3.484 -125,-165.867"
               style="fill:#f4ae90;fill-opacity:1;fill-rule:nonzero;stroke:none"
               id="path386" /><path
               d="M 784.719,355.359 909.711,521.23 905.082,524.715 780.09,358.848"
               style="fill:#f3a789;fill-opacity:1;fill-rule:nonzero;stroke:none"
               id="path388" /><path
               d="m 789.367,351.863 124.981,165.871 -4.629,3.485 -124.981,-165.867"
               style="fill:#f2a282;fill-opacity:1;fill-rule:nonzero;stroke:none"
               id="path390" /><path
               d="m 793.996,348.367 124.992,165.86 -4.621,3.488 -124.98,-165.86"
               style="fill:#f29b7c;fill-opacity:1;fill-rule:nonzero;stroke:none"
               id="path392" /><path
               d="M 798.645,344.871 923.637,510.73 919.008,514.219 794.027,348.348"
               style="fill:#f09575;fill-opacity:1;fill-rule:nonzero;stroke:none"
               id="path394" /><path
               d="m 803.293,341.375 124.98,165.852 -4.617,3.496 -124.992,-165.871"
               style="fill:#f08f6f;fill-opacity:1;fill-rule:nonzero;stroke:none"
               id="path396" /><path
               d="m 807.934,337.871 124.98,165.859 -4.621,3.485 -124.98,-165.86"
               style="fill:#ef896a;fill-opacity:1;fill-rule:nonzero;stroke:none"
               id="path398" /><path
               d="m 812.57,334.375 124.993,165.859 -4.622,3.485 -124.988,-165.867"
               style="fill:#ed8264;fill-opacity:1;fill-rule:nonzero;stroke:none"
               id="path400" /><path
               d="M 817.219,330.867 942.211,496.738 937.59,500.223 812.602,334.355"
               style="fill:#ed7a5d;fill-opacity:1;fill-rule:nonzero;stroke:none"
               id="path402" /><path
               d="m 821.859,327.371 124.989,165.871 -4.618,3.477 -124.992,-165.86"
               style="fill:#eb7358;fill-opacity:1;fill-rule:nonzero;stroke:none"
               id="path404" /><path
               d="m 826.508,323.875 124.988,165.859 -4.629,3.489 -124.98,-165.86"
               style="fill:#ea6c54;fill-opacity:1;fill-rule:nonzero;stroke:none"
               id="path406" /><path
               d="m 831.156,320.379 124.981,165.859 -4.621,3.489 -124.981,-165.872"
               style="fill:#e8654f;fill-opacity:1;fill-rule:nonzero;stroke:none"
               id="path408" /><path
               d="m 835.793,316.875 124.992,165.867 -4.629,3.488 -124.98,-165.871"
               style="fill:#e75f4a;fill-opacity:1;fill-rule:nonzero;stroke:none"
               id="path410" /><path
               d="m 840.441,313.379 124.981,165.859 -4.617,3.485 -124.992,-165.86"
               style="fill:#e65846;fill-opacity:1;fill-rule:nonzero;stroke:none"
               id="path412" /><path
               d="m 845.082,309.883 124.981,165.859 -4.622,3.485 -124.988,-165.868"
               style="fill:#e55042;fill-opacity:1;fill-rule:nonzero;stroke:none"
               id="path414" /><path
               d="M 849.73,306.387 974.711,472.234 970.09,475.73 845.102,309.863"
               style="fill:#e3473d;fill-opacity:1;fill-rule:nonzero;stroke:none"
               id="path416" /><path
               d="m 854.367,302.879 124.992,165.859 -4.621,3.489 -124.988,-165.86"
               style="fill:#e1413b;fill-opacity:1;fill-rule:nonzero;stroke:none"
               id="path418" /><path
               d="M 859.008,299.383 983.996,465.242 979.379,468.73 854.387,302.859"
               style="fill:#e03a38;fill-opacity:1;fill-rule:nonzero;stroke:none"
               id="path420" /><path
               d="m 863.656,295.879 124.989,165.867 -4.629,3.477 -124.989,-165.86"
               style="fill:#df3135;fill-opacity:1;fill-rule:nonzero;stroke:none"
               id="path422" /><path
               d="m 868.305,292.383 124.98,165.867 -4.621,3.477 -124.98,-165.86"
               style="fill:#de2932;fill-opacity:1;fill-rule:nonzero;stroke:none"
               id="path424" /><path
               d="M 872.941,288.887 997.934,454.746 993.305,458.23 868.324,292.371"
               style="fill:#dc1d32;fill-opacity:1;fill-rule:nonzero;stroke:none"
               id="path426" /><path
               d="m 877.59,285.379 124.98,165.871 -4.629,3.477 -124.98,-165.852"
               style="fill:#d91b32;fill-opacity:1;fill-rule:nonzero;stroke:none"
               id="path428" /></g></g></g><g
         id="g430"><g
           id="g432"
           clip-path="url(#clipPath436)"><path
             d="m 1002.45,451.055 37.05,-27.922 -124.848,-165.672 -37.05,27.93 124.848,165.664"
             style="fill:#d91b32;fill-opacity:1;fill-rule:nonzero;stroke:none"
             id="path438" /></g></g><path
         d="m 383.402,535.273 c -1.089,-1.496 -1.711,-2.335 -1.711,-2.335 -49.769,-70.84 -97.054,-105.743 -97.054,-105.743 0,0 49.304,6.25 100.449,82.5 0,0 122.434,160.938 182.805,306.75 l -4.508,29.032 C 516.336,731.473 435.84,610.219 399.949,558.621 325.07,529.414 287.32,493.867 287.32,493.867 c -66.531,-56.711 -37.859,-99.328 -37.859,-99.328 0,0 22.562,-46.133 104.945,-16.883 0,0 66.172,19.891 142.258,91.043 0,0 76.652,67.071 132.254,169.27 l -9.063,18.215 C 568.113,553.652 485.148,479.375 485.148,479.375 415.652,412.188 345.906,390.633 345.906,390.633 c -65.039,-21.328 -82.797,11.777 -82.797,11.777 0,0 -19.804,31.945 31.196,77.61 0,0 31.851,29.531 89.086,55.242 0,0 0,0 0.011,0.011"
         style="fill:#100f0d;fill-opacity:1;fill-rule:nonzero;stroke:none"
         id="path440" /><path
         d="m 818.625,440.508 c 1.848,-0.195 2.883,-0.305 2.883,-0.305 86.23,-7.683 140.097,-31.199 140.097,-31.199 0,0 -30.07,39.59 -121.671,45.742 0,0 -200.586,25.574 -357.051,4.969 L 459.988,441.27 c 122.262,16.257 267.504,7.175 330.141,1.882 62.746,-50.222 112.394,-65.156 112.394,-65.156 82.383,-29.258 104.957,16.875 104.957,16.875 0,0 28.66,42.609 -37.859,99.348 0,0 -50.32,47.351 -149.961,77.656 0,0 -96.426,32.871 -212.734,29.922 l -11.242,-16.973 c 114.66,6.465 220.472,-28.254 220.472,-28.254 92.949,-26.582 146.492,-76.218 146.492,-76.218 50.982,-45.657 31.172,-77.598 31.172,-77.598 0,0 -17.742,-33.117 -82.793,-11.777 0,0 -41.504,12.82 -92.39,49.531 0,0 0,0 -0.012,0"
         style="fill:#100f0d;fill-opacity:1;fill-rule:nonzero;stroke:none"
         id="path442" /><g
         id="g444"><g
           id="g446"
           clip-path="url(#clipPath450)"><path
             d="m 582.805,1027.89 141.093,-32.577 6.563,28.377 -141.102,32.58"
             style="fill:#317a34;fill-opacity:1;fill-rule:nonzero;stroke:none"
             id="path452" /><path
             d="m 581.949,1024.18 140.692,-32.492 1.367,5.894 -140.699,32.478"
             style="fill:#317a34;fill-opacity:1;fill-rule:nonzero;stroke:none"
             id="path454" /><path
             d="m 580.633,1018.46 140.687,-32.48 1.368,5.895 -140.7,32.485"
             style="fill:#42792f;fill-opacity:1;fill-rule:nonzero;stroke:none"
             id="path456" /><path
             d="m 579.316,1012.76 140.696,-32.483 1.359,5.895 -140.695,32.478"
             style="fill:#51782b;fill-opacity:1;fill-rule:nonzero;stroke:none"
             id="path458" /><path
             d="m 577.996,1007.06 140.699,-32.486 1.356,5.895 -140.692,32.481"
             style="fill:#637626;fill-opacity:1;fill-rule:nonzero;stroke:none"
             id="path460" /><path
             d="m 576.68,1001.36 140.695,-32.493 1.359,5.895 -140.695,32.488"
             style="fill:#727324;fill-opacity:1;fill-rule:nonzero;stroke:none"
             id="path462" /><path
             d="m 575.359,995.645 140.7,-32.481 1.355,5.887 -140.691,32.479"
             style="fill:#816e23;fill-opacity:1;fill-rule:nonzero;stroke:none"
             id="path464" /><path
             d="m 574.043,989.941 140.695,-32.48 1.36,5.887 -140.692,32.48"
             style="fill:#8f6925;fill-opacity:1;fill-rule:nonzero;stroke:none"
             id="path466" /><path
             d="m 572.723,984.238 140.699,-32.484 1.355,5.891 -140.687,32.48"
             style="fill:#9d6227;fill-opacity:1;fill-rule:nonzero;stroke:none"
             id="path468" /><path
             d="m 571.41,978.527 140.692,-32.476 1.367,5.887 -140.696,32.48"
             style="fill:#a95926;fill-opacity:1;fill-rule:nonzero;stroke:none"
             id="path470" /><path
             d="m 570.098,972.824 140.695,-32.476 1.359,5.886 -140.699,32.481"
             style="fill:#b55027;fill-opacity:1;fill-rule:nonzero;stroke:none"
             id="path472" /><path
             d="m 568.777,967.125 140.7,-32.484 1.355,5.89 -140.695,32.481"
             style="fill:#bf4429;fill-opacity:1;fill-rule:nonzero;stroke:none"
             id="path474" /><path
             d="m 567.461,961.414 140.695,-32.48 1.36,5.89 -140.7,32.485"
             style="fill:#ca372a;fill-opacity:1;fill-rule:nonzero;stroke:none"
             id="path476" /><path
             d="M 566.141,955.711 706.84,923.23 708.195,929.121 567.5,961.602"
             style="fill:#d2282d;fill-opacity:1;fill-rule:nonzero;stroke:none"
             id="path478" /><path
             d="m 564.82,950.008 140.7,-32.481 1.359,5.891 -140.699,32.48"
             style="fill:#d91b32;fill-opacity:1;fill-rule:nonzero;stroke:none"
             id="path480" /><path
             d="m 531.762,806.777 140.73,-32.484 33.516,145.152 -140.735,32.493"
             style="fill:#d91b32;fill-opacity:1;fill-rule:nonzero;stroke:none"
             id="path482" /></g></g><path
         d="m 683.207,864.941 c -0.754,1.672 -1.184,2.637 -1.184,2.637 -36.445,78.52 -43.027,136.942 -43.027,136.942 0,0 -19.238,-45.852 21.223,-128.25 0,0 78.133,-186.497 174.226,-311.711 l 27.422,-10.594 c -75.203,97.742 -139.961,228.07 -166.719,284.973 12.141,79.441 0.247,129.91 0.247,129.91 -15.852,85.962 -67.102,82.462 -67.102,82.462 0,0 -51.234,3.5 -67.094,-82.462 0,0 -15.855,-67.246 7.719,-168.711 0,0 19.758,-99.926 80.449,-199.18 l 20.324,-1.25 c -62.933,96.066 -85.777,205.063 -85.777,205.063 -23.441,93.773 -7.219,164.953 -7.219,164.953 14.039,66.997 51.598,65.817 51.598,65.817 0,0 37.57,1.18 51.602,-65.817 0,0 9.648,-42.36 3.312,-104.774 0,0 0,0 0,-0.008"
         style="fill:#100f0d;fill-opacity:1;fill-rule:nonzero;stroke:none"
         id="path484" /><path
         d="m 14.5742,567.48 -1.375,39.219 c -0.5312,15.262 3.4922,19.395 12.5156,19.711 9.1915,0.317 15.0977,-4.683 15.5977,-18.734 L 42.6719,568.465 14.5742,567.48 M 88.293,555.469 c 2.4297,0.078 4.1953,-0.723 4.3086,-4.016 l 2.0859,0.07 -0.8086,22.899 -2.0781,-0.067 c 0.1172,-3.3 -1.5899,-4.23 -4.0195,-4.308 l -33.3086,-1.172 -1.3985,40.078 C 52.2891,631.332 42.082,640.184 24.7305,639.578 9.11719,639.035 0.59375,629.531 1.39063,606.629 l 2.03515,-58.289 2.08594,0.066 c -0.11719,3.301 1.58203,4.231 4.01172,4.317 l 78.76956,2.746"
         style="fill:#100f0d;fill-opacity:1;fill-rule:evenodd;stroke:none"
         id="path486" /><path
         d="m 14.5742,567.48 -1.375,39.219 c -0.5312,15.262 3.4922,19.395 12.5156,19.711 9.1915,0.317 15.0977,-4.683 15.5977,-18.734 l 1.3594,-39.211 z M 88.293,555.469 c 2.4297,0.078 4.1953,-0.723 4.3086,-4.016 l 2.0859,0.07 -0.8086,22.899 -2.0781,-0.067 c 0.1172,-3.3 -1.5899,-4.23 -4.0195,-4.308 l -33.3086,-1.172 -1.3985,40.078 C 52.2891,631.332 42.082,640.184 24.7305,639.578 9.11719,639.035 0.59375,629.531 1.39063,606.629 l 2.03515,-58.289 2.08594,0.066 c -0.11719,3.301 1.58203,4.231 4.01172,4.317 z"
         style="fill:none;stroke:#100f0d;stroke-width:2.677;stroke-linecap:butt;stroke-linejoin:miter;stroke-miterlimit:4;stroke-dasharray:none;stroke-opacity:1"
         id="path488" /><path
         d="m 20.375,702.809 7.082,36.468 c 3.0821,15.844 7.9336,18.969 16.7969,17.246 9.0352,-1.753 13.6641,-7.96 10.9805,-21.761 l -7.2539,-37.328 -27.6055,5.375 m 39.1914,-7.621 6.0938,31.355 37.4768,14.469 c 0.578,0.238 1.527,0.59 2.043,0.48 1.015,-0.195 1.433,-0.804 0.867,-3.699 l 2.047,-0.398 4.769,24.539 -2.05,0.394 c -0.665,-3.402 -1.68,-4.094 -5.715,-5.781 L 67.6875,741.535 c 1.0664,17.301 -6.4062,26.18 -20.3789,28.895 -16.1875,3.144 -26.6328,-4.2 -31.0078,-26.692 L 5.20703,686.652 7.25391,686.258 c 0.6289,3.238 2.49609,3.758 4.88669,3.297 L 89.5,674.516 c 2.3867,-0.465 3.9258,-1.645 3.2969,-4.887 l 2.0429,-0.399 4.3711,22.493 -2.039,0.402 c -0.6328,-3.238 -2.5078,-3.762 -4.8906,-3.297 l -32.7149,6.36"
         style="fill:#100f0d;fill-opacity:1;fill-rule:evenodd;stroke:none"
         id="path490" /><path
         d="m 20.375,702.809 7.082,36.468 c 3.0821,15.844 7.9336,18.969 16.7969,17.246 9.0352,-1.753 13.6641,-7.96 10.9805,-21.761 l -7.2539,-37.328 z m 39.1914,-7.621 6.0938,31.355 37.4768,14.469 c 0.578,0.238 1.527,0.59 2.043,0.48 1.015,-0.195 1.433,-0.804 0.867,-3.699 l 2.047,-0.398 4.769,24.539 -2.05,0.394 c -0.665,-3.402 -1.68,-4.094 -5.715,-5.781 L 67.6875,741.535 c 1.0664,17.301 -6.4062,26.18 -20.3789,28.895 -16.1875,3.144 -26.6328,-4.2 -31.0078,-26.692 L 5.20703,686.652 7.25391,686.258 c 0.6289,3.238 2.49609,3.758 4.88669,3.297 L 89.5,674.516 c 2.3867,-0.465 3.9258,-1.645 3.2969,-4.887 l 2.0429,-0.399 4.3711,22.493 -2.039,0.402 c -0.6328,-3.238 -2.5078,-3.762 -4.8906,-3.297 z"
         style="fill:none;stroke:#100f0d;stroke-width:2.677;stroke-linecap:butt;stroke-linejoin:miter;stroke-miterlimit:4;stroke-dasharray:none;stroke-opacity:1"
         id="path492" /><path
         d="m 69.4336,864.984 c 9.8203,21.082 27.582,27.934 47.2384,18.766 19.676,-9.172 25.832,-27.176 16.004,-48.254 -9.832,-21.082 -27.586,-27.937 -47.2541,-18.769 -19.668,9.175 -25.8242,27.179 -15.9883,48.257 m -10.7031,4.989 c -12.6914,-27.219 -6.9844,-54.399 20.2383,-67.086 27.2152,-12.699 51.7072,0.398 64.4022,27.617 12.692,27.219 6.984,54.398 -20.238,67.09 -27.2189,12.691 -51.7111,-0.403 -64.4025,-27.621"
         style="fill:#100f0d;fill-opacity:1;fill-rule:evenodd;stroke:none"
         id="path494" /><path
         d="m 69.4336,864.984 c 9.8203,21.082 27.582,27.934 47.2384,18.766 19.676,-9.172 25.832,-27.176 16.004,-48.254 -9.832,-21.082 -27.586,-27.937 -47.2541,-18.769 -19.668,9.175 -25.8242,27.179 -15.9883,48.257 z m -10.7031,4.989 c -12.6914,-27.219 -6.9844,-54.399 20.2383,-67.086 27.2152,-12.699 51.7072,0.398 64.4022,27.617 12.692,27.219 6.984,54.398 -20.238,67.09 -27.2189,12.691 -51.7111,-0.403 -64.4025,-27.621 z"
         style="fill:none;stroke:#100f0d;stroke-width:2.677;stroke-linecap:butt;stroke-linejoin:miter;stroke-miterlimit:4;stroke-dasharray:none;stroke-opacity:1"
         id="path496" /><path
         d="m 209.926,937.273 -1.621,1.317 c -2.082,-2.567 -3.977,-2.145 -5.864,-0.617 l -57.199,46.32 18.356,22.667 c 2.726,3.37 4.629,4.06 7.328,1.87 l 1.312,1.63 -15.918,12.89 -1.312,-1.62 c 2.289,-1.86 2.195,-4.46 -0.317,-7.57 l -45.878,-56.652 c -2.516,-3.106 -5.04,-3.738 -7.34,-1.883 l -1.309,-1.617 15.922,-12.895 1.305,1.621 c -2.692,2.184 -2.411,4.188 0.316,7.559 l 18.359,22.664 57.204,-46.316 c 1.882,-1.532 2.683,-3.301 0.609,-5.86 l 1.621,-1.312 14.426,17.804"
         style="fill:#100f0d;fill-opacity:1;fill-rule:nonzero;stroke:none"
         id="path498" /><path
         d="m 209.926,937.273 -1.621,1.317 c -2.082,-2.567 -3.977,-2.145 -5.864,-0.617 l -57.199,46.32 18.356,22.667 c 2.726,3.37 4.629,4.06 7.328,1.87 l 1.312,1.63 -15.918,12.89 -1.312,-1.62 c 2.289,-1.86 2.195,-4.46 -0.317,-7.57 l -45.878,-56.652 c -2.516,-3.106 -5.04,-3.738 -7.34,-1.883 l -1.309,-1.617 15.922,-12.895 1.305,1.621 c -2.692,2.184 -2.411,4.188 0.316,7.559 l 18.359,22.664 57.204,-46.316 c 1.882,-1.532 2.683,-3.301 0.609,-5.86 l 1.621,-1.312 z"
         style="fill:none;stroke:#100f0d;stroke-width:2.677;stroke-linecap:butt;stroke-linejoin:miter;stroke-miterlimit:4;stroke-dasharray:none;stroke-opacity:1"
         id="path500" /><path
         d="m 248.652,991.082 c 1.528,-1.891 1.946,-3.781 -0.621,-5.859 l 1.313,-1.618 60.437,48.935 c 3.375,2.74 5.379,3.02 7.125,0.87 l 1.621,1.3 -13.328,16.46 -1.617,-1.3 c 2.731,-3.38 1.957,-6.01 -1.816,-9.07 l -45.063,-36.49 -18.57,22.94 27.656,22.39 c 3.777,3.06 6.02,3.31 8.207,0.62 l 1.625,1.31 -13.219,16.32 -1.625,-1.31 c 2.297,-2.83 0.774,-5.63 -2.472,-8.26 l -27.383,-22.17 -17.262,21.31 42.09,34.09 c 4.047,3.28 6.465,2.77 8.324,0.49 l 1.617,1.3 -12.457,15.38 -1.617,-1.31 c 1.645,-2.02 1.375,-3.35 -3.211,-7.06 l -56.527,-45.78 1.312,-1.62 c 2.563,2.08 4.332,1.27 5.86,-0.62 l 49.601,-61.248"
         style="fill:#100f0d;fill-opacity:1;fill-rule:nonzero;stroke:none"
         id="path502" /><path
         d="m 248.652,991.082 c 1.528,-1.891 1.946,-3.781 -0.621,-5.859 l 1.313,-1.618 60.437,48.935 c 3.375,2.74 5.379,3.02 7.125,0.87 l 1.621,1.3 -13.328,16.46 -1.617,-1.3 c 2.731,-3.38 1.957,-6.01 -1.816,-9.07 l -45.063,-36.49 -18.57,22.94 27.656,22.39 c 3.777,3.06 6.02,3.31 8.207,0.62 l 1.625,1.31 -13.219,16.32 -1.625,-1.31 c 2.297,-2.83 0.774,-5.63 -2.472,-8.26 l -27.383,-22.17 -17.262,21.31 42.09,34.09 c 4.047,3.28 6.465,2.77 8.324,0.49 l 1.617,1.3 -12.457,15.38 -1.617,-1.31 c 1.645,-2.02 1.375,-3.35 -3.211,-7.06 l -56.527,-45.78 1.312,-1.62 c 2.563,2.08 4.332,1.27 5.86,-0.62 z"
         style="fill:none;stroke:#100f0d;stroke-width:2.677;stroke-linecap:butt;stroke-linejoin:miter;stroke-miterlimit:4;stroke-dasharray:none;stroke-opacity:1"
         id="path504" /><path
         d="m 335.754,1053.39 0.758,-1.57 68.5,33.41 c 3.902,1.91 5.914,1.73 7.433,-1.39 l 1.871,0.91 -9.132,18.73 -1.871,-0.92 c 1.296,-2.65 0.265,-5.28 -3.329,-7.03 l -46.644,-22.75 19.269,96.7 -0.605,1.25 -68.5,-33.41 c -3.582,-1.75 -6.145,-1.26 -7.438,1.39 l -1.871,-0.91 8.977,-18.41 1.875,0.92 c -1.524,3.12 -0.418,4.81 3.48,6.71 l 45.246,22.07 -18.019,-95.7"
         style="fill:#100f0d;fill-opacity:1;fill-rule:nonzero;stroke:none"
         id="path506" /><path
         d="m 335.754,1053.39 0.758,-1.57 68.5,33.41 c 3.902,1.91 5.914,1.73 7.433,-1.39 l 1.871,0.91 -9.132,18.73 -1.871,-0.92 c 1.296,-2.65 0.265,-5.28 -3.329,-7.03 l -46.644,-22.75 19.269,96.7 -0.605,1.25 -68.5,-33.41 c -3.582,-1.75 -6.145,-1.26 -7.438,1.39 l -1.871,-0.91 8.977,-18.41 1.875,0.92 c -1.524,3.12 -0.418,4.81 3.48,6.71 l 45.246,22.07 z"
         style="fill:none;stroke:#100f0d;stroke-width:2.677;stroke-linecap:butt;stroke-linejoin:miter;stroke-miterlimit:4;stroke-dasharray:none;stroke-opacity:1"
         id="path508" /><path
         d="m 465.988,1107.47 -0.636,1.99 c -3.137,-1.02 -4.504,0.36 -5.254,2.68 l -24.352,74.95 c -0.758,2.31 -0.465,4.23 2.676,5.25 l -0.649,1.98 -21.793,-7.08 0.645,-1.98 c 3.141,1.02 4.496,-0.37 5.246,-2.68 l 24.359,-74.95 c 0.75,-2.31 0.461,-4.23 -2.671,-5.25 l 0.636,-1.99 21.793,7.08"
         style="fill:#100f0d;fill-opacity:1;fill-rule:nonzero;stroke:none"
         id="path510" /><path
         d="m 465.988,1107.47 -0.636,1.99 c -3.137,-1.02 -4.504,0.36 -5.254,2.68 l -24.352,74.95 c -0.758,2.31 -0.465,4.23 2.676,5.25 l -0.649,1.98 -21.793,-7.08 0.645,-1.98 c 3.141,1.02 4.496,-0.37 5.246,-2.68 l 24.359,-74.95 c 0.75,-2.31 0.461,-4.23 -2.671,-5.25 l 0.636,-1.99 z"
         style="fill:none;stroke:#100f0d;stroke-width:2.677;stroke-linecap:butt;stroke-linejoin:miter;stroke-miterlimit:4;stroke-dasharray:none;stroke-opacity:1"
         id="path512" /><path
         d="m 537.551,1204.47 c 23.094,2.83 38.308,-8.59 40.953,-30.13 2.641,-21.53 -9.359,-36.3 -32.445,-39.14 -23.086,-2.83 -38.313,8.59 -40.954,30.13 -2.652,21.55 9.356,36.31 32.446,39.14 m -1.434,11.71 c -29.816,-3.65 -49.84,-22.9 -46.176,-52.71 3.661,-29.81 27.747,-43.64 57.547,-39.98 29.817,3.66 49.84,22.9 46.176,52.71 -3.656,29.82 -27.742,43.65 -57.547,39.98"
         style="fill:#100f0d;fill-opacity:1;fill-rule:evenodd;stroke:none"
         id="path514" /><path
         d="m 537.551,1204.47 c 23.094,2.83 38.308,-8.59 40.953,-30.13 2.641,-21.53 -9.359,-36.3 -32.445,-39.14 -23.086,-2.83 -38.313,8.59 -40.954,30.13 -2.652,21.55 9.356,36.31 32.446,39.14 z m -1.434,11.71 c -29.816,-3.65 -49.84,-22.9 -46.176,-52.71 3.661,-29.81 27.747,-43.64 57.547,-39.98 29.817,3.66 49.84,22.9 46.176,52.71 -3.656,29.82 -27.742,43.65 -57.547,39.98 z"
         style="fill:none;stroke:#100f0d;stroke-width:2.677;stroke-linecap:butt;stroke-linejoin:miter;stroke-miterlimit:4;stroke-dasharray:none;stroke-opacity:1"
         id="path516" /><path
         d="m 664.758,1210.5 c -0.594,0.78 -1.172,1.73 -1.094,2.41 0.168,1.38 0.918,1.82 3.496,1.5 l 0.266,2.06 -29.133,3.58 -0.242,-2.07 c 3.269,-0.4 3.926,-2.23 3.621,-4.64 l -9.598,-78.23 c -0.304,-2.41 -1.379,-4.03 -4.64,-3.63 l -0.262,-2.06 20.683,-2.54 0.243,2.07 c -3.262,0.4 -3.914,2.23 -3.621,4.64 l 8.632,70.3 52.774,-77.32 c 0.437,-0.75 1.512,-1.93 1.316,-3.48 -0.117,-1.04 -1.367,-1.23 -3.613,-0.95 l -0.254,-2.07 22.051,-2.71 0.254,2.07 c -3.27,0.4 -3.926,2.23 -3.633,4.64 l 9.609,78.23 c 0.293,2.41 1.379,4.03 4.649,3.63 l 0.254,2.06 -20.684,2.54 -0.254,-2.07 c 3.281,-0.41 3.926,-2.23 3.633,-4.64 l -7.578,-61.69 -0.34,0.04 -46.535,68.33"
         style="fill:#100f0d;fill-opacity:1;fill-rule:nonzero;stroke:none"
         id="path518" /><path
         d="m 664.758,1210.5 c -0.594,0.78 -1.172,1.73 -1.094,2.41 0.168,1.38 0.918,1.82 3.496,1.5 l 0.266,2.06 -29.133,3.58 -0.242,-2.07 c 3.269,-0.4 3.926,-2.23 3.621,-4.64 l -9.598,-78.23 c -0.304,-2.41 -1.379,-4.03 -4.64,-3.63 l -0.262,-2.06 20.683,-2.54 0.243,2.07 c -3.262,0.4 -3.914,2.23 -3.621,4.64 l 8.632,70.3 52.774,-77.32 c 0.437,-0.75 1.512,-1.93 1.316,-3.48 -0.117,-1.04 -1.367,-1.23 -3.613,-0.95 l -0.254,-2.07 22.051,-2.71 0.254,2.07 c -3.27,0.4 -3.926,2.23 -3.633,4.64 l 9.609,78.23 c 0.293,2.41 1.379,4.03 4.649,3.63 l 0.254,2.06 -20.684,2.54 -0.254,-2.07 c 3.281,-0.41 3.926,-2.23 3.633,-4.64 l -7.578,-61.69 -0.34,0.04 z"
         style="fill:none;stroke:#100f0d;stroke-width:2.677;stroke-linecap:butt;stroke-linejoin:miter;stroke-miterlimit:4;stroke-dasharray:none;stroke-opacity:1"
         id="path520" /><path
         d="m 764.926,1112.6 c -0.871,-2.26 -2.297,-3.57 -5.383,-2.4 l -0.742,-1.93 72.597,-27.88 c 4.055,-1.55 5.305,-3.15 4.309,-5.74 l 1.941,-0.74 7.598,19.76 -1.953,0.75 c -1.551,-4.05 -4.219,-4.71 -8.75,-2.96 l -54.141,20.78 10.578,27.55 33.223,-12.75 c 4.539,-1.74 5.887,-3.56 4.637,-6.81 l 1.953,-0.75 7.531,19.62 -1.953,0.75 c -1.301,-3.41 -4.492,-3.48 -8.379,-1.99 l -32.902,12.63 9.836,25.6 50.554,-19.41 c 4.864,-1.86 5.637,-4.2 4.583,-6.96 l 1.941,-0.75 7.09,18.48 -1.942,0.74 c -0.929,-2.43 -2.218,-2.87 -7.726,-0.75 l -67.899,26.06 -0.754,-1.93 c 3.079,-1.18 3.262,-3.12 2.403,-5.39 l -28.25,-73.58"
         style="fill:#100f0d;fill-opacity:1;fill-rule:nonzero;stroke:none"
         id="path522" /><path
         d="m 764.926,1112.6 c -0.871,-2.26 -2.297,-3.57 -5.383,-2.4 l -0.742,-1.93 72.597,-27.88 c 4.055,-1.55 5.305,-3.15 4.309,-5.74 l 1.941,-0.74 7.598,19.76 -1.953,0.75 c -1.551,-4.05 -4.219,-4.71 -8.75,-2.96 l -54.141,20.78 10.578,27.55 33.223,-12.75 c 4.539,-1.74 5.887,-3.56 4.637,-6.81 l 1.953,-0.75 7.531,19.62 -1.953,0.75 c -1.301,-3.41 -4.492,-3.48 -8.379,-1.99 l -32.902,12.63 9.836,25.6 50.554,-19.41 c 4.864,-1.86 5.637,-4.2 4.583,-6.96 l 1.941,-0.75 7.09,18.48 -1.942,0.74 c -0.929,-2.43 -2.218,-2.87 -7.726,-0.75 l -67.899,26.06 -0.754,-1.93 c 3.079,-1.18 3.262,-3.12 2.403,-5.39 z"
         style="fill:none;stroke:#100f0d;stroke-width:2.677;stroke-linecap:butt;stroke-linejoin:miter;stroke-miterlimit:4;stroke-dasharray:none;stroke-opacity:1"
         id="path524" /><path
         d="m 987.602,1011.3 -2.629,0.34 c -0.059,-0.63 -0.313,-1.77 -0.86,-2.44 -2.949,-3.65 -21.648,-3.02 -34.472,7.36 -16.59,13.44 -23.575,37.64 -10.36,53.96 15.086,18.62 37.285,14.04 51.856,2.24 14.293,-11.58 20.333,-27.85 17.933,-30.82 -0.66,-0.81 -1.51,-1.02 -2.1,-1.21 l 1.1,-2.23 20.05,7.67 -0.74,2.38 c -1.09,-0.24 -1.66,-0.66 -3.01,0.43 -1.49,1.2 -3.06,5.61 -6.91,11.61 -3.82,6.02 -9.45,13.7 -18.23,20.8 -25.761,20.86 -55.164,17.65 -69.91,-0.56 -17.597,-21.72 -13.547,-52.03 11.688,-72.45 22.519,-18.255 40.207,-13.802 42.09,-15.333 0.8,-0.652 1.269,-1.465 1.261,-2.578 l 2.735,-0.207 0.508,21.038"
         style="fill:#100f0d;fill-opacity:1;fill-rule:nonzero;stroke:none"
         id="path526" /><path
         d="m 987.602,1011.3 -2.629,0.34 c -0.059,-0.63 -0.313,-1.77 -0.86,-2.44 -2.949,-3.65 -21.648,-3.02 -34.472,7.36 -16.59,13.44 -23.575,37.64 -10.36,53.96 15.086,18.62 37.285,14.04 51.856,2.24 14.293,-11.58 20.333,-27.85 17.933,-30.82 -0.66,-0.81 -1.51,-1.02 -2.1,-1.21 l 1.1,-2.23 20.05,7.67 -0.74,2.38 c -1.09,-0.24 -1.66,-0.66 -3.01,0.43 -1.49,1.2 -3.06,5.61 -6.91,11.61 -3.82,6.02 -9.45,13.7 -18.23,20.8 -25.761,20.86 -55.164,17.65 -69.91,-0.56 -17.597,-21.72 -13.547,-52.03 11.688,-72.45 22.519,-18.255 40.207,-13.802 42.09,-15.333 0.8,-0.652 1.269,-1.465 1.261,-2.578 l 2.735,-0.207 z"
         style="fill:none;stroke:#100f0d;stroke-width:2.677;stroke-linecap:butt;stroke-linejoin:miter;stroke-miterlimit:4;stroke-dasharray:none;stroke-opacity:1"
         id="path528" /><path
         d="m 1014.04,936.371 1.6,1.344 c -2.12,2.523 -1.35,4.301 0.51,5.863 l 60.37,50.66 c 1.86,1.563 3.76,2.02 5.88,-0.515 l 1.59,1.343 -14.73,17.554 -1.6,-1.34 c 2.12,-2.53 1.36,-4.3 -0.51,-5.87 l -60.38,-50.656 c -1.86,-1.563 -3.74,-2.016 -5.87,0.512 l -1.591,-1.34 14.731,-17.555"
         style="fill:#100f0d;fill-opacity:1;fill-rule:nonzero;stroke:none"
         id="path530" /><path
         d="m 1014.04,936.371 1.6,1.344 c -2.12,2.523 -1.35,4.301 0.51,5.863 l 60.37,50.66 c 1.86,1.563 3.76,2.02 5.88,-0.515 l 1.59,1.343 -14.73,17.554 -1.6,-1.34 c 2.12,-2.53 1.36,-4.3 -0.51,-5.87 l -60.38,-50.656 c -1.86,-1.563 -3.74,-2.016 -5.87,0.512 l -1.591,-1.34 z"
         style="fill:none;stroke:#100f0d;stroke-width:2.677;stroke-linecap:butt;stroke-linejoin:miter;stroke-miterlimit:4;stroke-dasharray:none;stroke-opacity:1"
         id="path532" /><path
         d="m 1064.57,863.305 1.79,1.07 c -1.8,2.977 -1.17,3.965 -0.27,4.496 0.89,0.535 3.45,0.66 3.99,0.777 l 81.39,10.829 c 4.69,0.601 6.93,-0.086 8.63,-2.911 l 1.79,1.075 -12.7,21.129 -1.79,-1.075 c 1.79,-2.972 1.28,-4.496 -0.2,-5.39 -0.75,-0.446 -1.9,-0.532 -3.07,-0.629 l -71.8,-9.926 41.68,60.07 c 0.61,0.989 1.3,2.207 2.05,2.657 1.63,0.988 3.17,0.093 4.7,-2.434 l 1.78,1.066 -12.87,21.426 -1.79,-1.074 c 1.61,-2.676 1.67,-4.461 -1.48,-8.988 l -47.05,-67.969 c -1.05,-1.641 -1.4,-2.055 -2.74,-2.863 -1.04,-0.625 -2.32,-0.172 -3.93,2.5 l -1.79,-1.075 13.68,-22.761"
         style="fill:#100f0d;fill-opacity:1;fill-rule:nonzero;stroke:none"
         id="path534" /><path
         d="m 1064.57,863.305 1.79,1.07 c -1.8,2.977 -1.17,3.965 -0.27,4.496 0.89,0.535 3.45,0.66 3.99,0.777 l 81.39,10.829 c 4.69,0.601 6.93,-0.086 8.63,-2.911 l 1.79,1.075 -12.7,21.129 -1.79,-1.075 c 1.79,-2.972 1.28,-4.496 -0.2,-5.39 -0.75,-0.446 -1.9,-0.532 -3.07,-0.629 l -71.8,-9.926 41.68,60.07 c 0.61,0.989 1.3,2.207 2.05,2.657 1.63,0.988 3.17,0.093 4.7,-2.434 l 1.78,1.066 -12.87,21.426 -1.79,-1.074 c 1.61,-2.676 1.67,-4.461 -1.48,-8.988 l -47.05,-67.969 c -1.05,-1.641 -1.4,-2.055 -2.74,-2.863 -1.04,-0.625 -2.32,-0.172 -3.93,2.5 l -1.79,-1.075 z"
         style="fill:none;stroke:#100f0d;stroke-width:2.677;stroke-linecap:butt;stroke-linejoin:miter;stroke-miterlimit:4;stroke-dasharray:none;stroke-opacity:1"
         id="path536" /><path
         d="m 1099.01,787.469 1.95,0.75 c -1.19,3.078 0.12,4.515 2.39,5.383 l 73.58,28.242 c 2.26,0.871 4.2,0.683 5.38,-2.391 l 1.94,0.746 -8.21,21.387 -1.94,-0.742 c 1.18,-3.082 -0.12,-4.516 -2.4,-5.387 l -73.57,-28.242 c -2.28,-0.871 -4.21,-0.684 -5.38,2.398 l -1.96,-0.746 8.22,-21.398"
         style="fill:#100f0d;fill-opacity:1;fill-rule:nonzero;stroke:none"
         id="path538" /><path
         d="m 1099.01,787.469 1.95,0.75 c -1.19,3.078 0.12,4.515 2.39,5.383 l 73.58,28.242 c 2.26,0.871 4.2,0.683 5.38,-2.391 l 1.94,0.746 -8.21,21.387 -1.94,-0.742 c 1.18,-3.082 -0.12,-4.516 -2.4,-5.387 l -73.57,-28.242 c -2.28,-0.871 -4.21,-0.684 -5.38,2.398 l -1.96,-0.746 z"
         style="fill:none;stroke:#100f0d;stroke-width:2.677;stroke-linecap:butt;stroke-linejoin:miter;stroke-miterlimit:4;stroke-dasharray:none;stroke-opacity:1"
         id="path540" /><path
         d="m 1200.93,769.879 -2.03,-0.434 c 0.68,-3.226 -0.84,-4.437 -3.21,-4.937 l -77.09,-16.391 c -2.39,-0.508 -4.26,-0.019 -4.95,3.211 l -2.04,-0.437 16.03,-75.387 c 0.91,-4.25 0.24,-6.164 -2.47,-6.738 l 0.43,-2.039 20.04,4.257 -0.43,2.036 c -3.58,-0.75 -5.54,0.957 -6.36,4.867 l -12.13,57.047 71.32,15.164 c 3.06,0.648 4.93,0.16 5.61,-3.063 l 2.05,0.43 -4.77,22.414"
         style="fill:#100f0d;fill-opacity:1;fill-rule:nonzero;stroke:none"
         id="path542" /><path
         d="m 1200.93,769.879 -2.03,-0.434 c 0.68,-3.226 -0.84,-4.437 -3.21,-4.937 l -77.09,-16.391 c -2.39,-0.508 -4.26,-0.019 -4.95,3.211 l -2.04,-0.437 16.03,-75.387 c 0.91,-4.25 0.24,-6.164 -2.47,-6.738 l 0.43,-2.039 20.04,4.257 -0.43,2.036 c -3.58,-0.75 -5.54,0.957 -6.36,4.867 l -12.13,57.047 71.32,15.164 c 3.06,0.648 4.93,0.16 5.61,-3.063 l 2.05,0.43 z"
         style="fill:none;stroke:#100f0d;stroke-width:2.677;stroke-linecap:butt;stroke-linejoin:miter;stroke-miterlimit:4;stroke-dasharray:none;stroke-opacity:1"
         id="path544" /><path
         d="m 1136.88,640.906 c -2.43,0.039 -4.15,0.938 -4.09,4.235 l -2.09,0.035 -1.35,-77.754 c -0.08,-4.348 -1.15,-6.055 -3.93,-6.016 l -0.04,-2.07 21.18,-0.383 0.03,2.09 c -4.33,0.078 -5.86,2.355 -5.78,7.219 l 1.02,57.972 29.51,-0.515 -0.62,-35.582 c -0.09,-4.856 -1.33,-6.75 -4.82,-6.692 l -0.03,-2.078 21.01,-0.363 0.04,2.07 c -3.66,0.071 -4.82,3.047 -4.74,7.207 l 0.61,35.235 27.43,-0.477 -0.95,-54.152 c -0.1,-5.203 -2.03,-6.727 -4.98,-6.688 l -0.04,-2.082 19.8,-0.34 0.02,2.078 c -2.59,0.051 -3.44,1.106 -3.34,7.004 l 1.26,72.723 -2.08,0.035 c -0.05,-3.297 -1.8,-4.137 -4.23,-4.086 l -78.8,1.375"
         style="fill:#100f0d;fill-opacity:1;fill-rule:nonzero;stroke:none"
         id="path546" /><path
         d="m 1136.88,640.906 c -2.43,0.039 -4.15,0.938 -4.09,4.235 l -2.09,0.035 -1.35,-77.754 c -0.08,-4.348 -1.15,-6.055 -3.93,-6.016 l -0.04,-2.07 21.18,-0.383 0.03,2.09 c -4.33,0.078 -5.86,2.355 -5.78,7.219 l 1.02,57.972 29.51,-0.515 -0.62,-35.582 c -0.09,-4.856 -1.33,-6.75 -4.82,-6.692 l -0.03,-2.078 21.01,-0.363 0.04,2.07 c -3.66,0.071 -4.82,3.047 -4.74,7.207 l 0.61,35.235 27.43,-0.477 -0.95,-54.152 c -0.1,-5.203 -2.03,-6.727 -4.98,-6.688 l -0.04,-2.082 19.8,-0.34 0.02,2.078 c -2.59,0.051 -3.44,1.106 -3.34,7.004 l 1.26,72.723 -2.08,0.035 c -0.05,-3.297 -1.8,-4.137 -4.23,-4.086 z"
         style="fill:none;stroke:#100f0d;stroke-width:2.677;stroke-linecap:butt;stroke-linejoin:miter;stroke-miterlimit:4;stroke-dasharray:none;stroke-opacity:1"
         id="path548" /><path
         d="m 181.313,311.258 c 0.14,0.976 0.414,2.043 0.964,2.461 1.114,0.84 1.946,0.597 3.512,-1.485 l 1.664,1.262 -17.656,23.426 -1.664,-1.258 c 1.988,-2.637 1.117,-4.367 -0.817,-5.832 l -62.945,-47.43 c -1.941,-1.464 -3.851,-1.808 -5.8319,0.821 l -1.668,-1.25 12.5389,-16.641 1.668,1.258 c -1.988,2.637 -1.125,4.367 0.817,5.832 l 56.566,42.625 -18.957,-91.668 c -0.238,-0.832 -0.34,-2.43 -1.586,-3.379 -0.836,-0.621 -1.848,0.141 -3.203,1.941 l -1.66,-1.25 13.371,-17.742 1.66,1.25 c -1.984,2.629 -1.121,4.371 0.824,5.832 l 62.938,47.43 c 1.937,1.465 3.847,1.816 5.836,-0.82 l 1.664,1.257 -12.539,16.641 -1.661,-1.258 c 1.985,-2.636 1.122,-4.375 -0.82,-5.84 l -49.633,-37.394 -0.211,0.273 16.829,80.938"
         style="fill:#100f0d;fill-opacity:1;fill-rule:nonzero;stroke:none"
         id="path550" /><path
         d="m 181.313,311.258 c 0.14,0.976 0.414,2.043 0.964,2.461 1.114,0.84 1.946,0.597 3.512,-1.485 l 1.664,1.262 -17.656,23.426 -1.664,-1.258 c 1.988,-2.637 1.117,-4.367 -0.817,-5.832 l -62.945,-47.43 c -1.941,-1.464 -3.851,-1.808 -5.8319,0.821 l -1.668,-1.25 12.5389,-16.641 1.668,1.258 c -1.988,2.637 -1.125,4.367 0.817,5.832 l 56.566,42.625 -18.957,-91.668 c -0.238,-0.832 -0.34,-2.43 -1.586,-3.379 -0.836,-0.621 -1.848,0.141 -3.203,1.941 l -1.66,-1.25 13.371,-17.742 1.66,1.25 c -1.984,2.629 -1.121,4.371 0.824,5.832 l 62.938,47.43 c 1.937,1.465 3.847,1.816 5.836,-0.82 l 1.664,1.257 -12.539,16.641 -1.661,-1.258 c 1.985,-2.636 1.122,-4.375 -0.82,-5.84 l -49.633,-37.394 -0.211,0.273 z"
         style="fill:none;stroke:#100f0d;stroke-width:2.677;stroke-linecap:butt;stroke-linejoin:miter;stroke-miterlimit:4;stroke-dasharray:none;stroke-opacity:1"
         id="path552" /><path
         d="m 281.688,193.309 -10.543,-44.168 -29.278,23.699 39.821,20.469 m -13.165,-56.797 -3.617,-14.942 c -1.133,-4.441 -1.304,-5.191 -1.961,-6.011 -0.984,-1.219 -2.066,-1.45 -4.222,0.3 l -1.313,-1.621 18.75,-15.1872 1.313,1.6212 c -3.102,2.508 -2.91,3.027 -0.879,11.887 l 17.574,74.66 c 1.035,4.312 1.289,6.551 2.164,7.633 0.867,1.089 1.852,1.187 3.473,-0.133 l 1.3,1.633 -19.691,15.937 -1.309,-1.617 c 1.348,-1.09 1.774,-2.774 1.118,-3.582 -0.77,-0.949 -2.559,-1.5 -6.418,-3.508 l -68.559,-34.723 c -7.504,-3.757 -8.371,-3.73 -10.66,-1.879 l -1.316,-1.609 16.597,-13.449 1.309,1.629 c -1.617,1.308 -1.856,2.398 -1.094,3.328 0.875,1.09 3.949,2.402 5.934,3.48 l 13.328,7.071 38.179,-30.918"
         style="fill:#100f0d;fill-opacity:1;fill-rule:evenodd;stroke:none"
         id="path554" /><path
         d="m 281.688,193.309 -10.543,-44.168 -29.278,23.699 z m -13.165,-56.797 -3.617,-14.942 c -1.133,-4.441 -1.304,-5.191 -1.961,-6.011 -0.984,-1.219 -2.066,-1.45 -4.222,0.3 l -1.313,-1.621 18.75,-15.1872 1.313,1.6212 c -3.102,2.508 -2.91,3.027 -0.879,11.887 l 17.574,74.66 c 1.035,4.312 1.289,6.551 2.164,7.633 0.867,1.089 1.852,1.187 3.473,-0.133 l 1.3,1.633 -19.691,15.937 -1.309,-1.617 c 1.348,-1.09 1.774,-2.774 1.118,-3.582 -0.77,-0.949 -2.559,-1.5 -6.418,-3.508 l -68.559,-34.723 c -7.504,-3.757 -8.371,-3.73 -10.66,-1.879 l -1.316,-1.609 16.597,-13.449 1.309,1.629 c -1.617,1.308 -1.856,2.398 -1.094,3.328 0.875,1.09 3.949,2.402 5.934,3.48 l 13.328,7.071 z"
         style="fill:none;stroke:#100f0d;stroke-width:2.677;stroke-linecap:butt;stroke-linejoin:miter;stroke-miterlimit:4;stroke-dasharray:none;stroke-opacity:1"
         id="path556" /><path
         d="m 317.32,78.0508 -0.734,-1.582 69.066,-32.1993 c 3.938,-1.8398 5.071,-3.5195 3.598,-6.6601 l 1.895,-0.8789 8.8,18.8789 -1.886,0.8711 c -1.25,-2.6719 -3.942,-3.5196 -7.563,-1.8321 l -47.047,21.9336 87.285,45.879 0.586,1.258 -69.066,32.211 c -3.617,1.679 -4.848,3.98 -3.598,6.66 l -1.886,0.879 -8.657,-18.571 1.891,-0.886 c 1.461,3.16 3.476,3.367 7.41,1.539 L 403.039,124.27 317.32,78.0508"
         style="fill:#100f0d;fill-opacity:1;fill-rule:nonzero;stroke:none"
         id="path558" /><path
         d="m 317.32,78.0508 -0.734,-1.582 69.066,-32.1993 c 3.938,-1.8398 5.071,-3.5195 3.598,-6.6601 l 1.895,-0.8789 8.8,18.8789 -1.886,0.8711 c -1.25,-2.6719 -3.942,-3.5196 -7.563,-1.8321 l -47.047,21.9336 87.285,45.879 0.586,1.258 -69.066,32.211 c -3.617,1.679 -4.848,3.98 -3.598,6.66 l -1.886,0.879 -8.657,-18.571 1.891,-0.886 c 1.461,3.16 3.476,3.367 7.41,1.539 l 45.625,-21.281 z"
         style="fill:none;stroke:#100f0d;stroke-width:2.677;stroke-linecap:butt;stroke-linejoin:miter;stroke-miterlimit:4;stroke-dasharray:none;stroke-opacity:1"
         id="path560" /><path
         d="m 467.547,18.9219 0.539,2.0195 c -3.184,0.8477 -3.574,2.75 -2.945,5.0899 l 20.398,76.1407 c 0.633,2.34 1.91,3.797 5.106,2.937 l 0.531,2.02 -22.129,5.93 -0.543,-2.02 c 3.187,-0.848 3.574,-2.758 2.945,-5.09 l -20.39,-76.1404 c -0.629,-2.3398 -1.918,-3.7969 -5.11,-2.9492 l -0.543,-2.0078 22.141,-5.9297"
         style="fill:#100f0d;fill-opacity:1;fill-rule:nonzero;stroke:none"
         id="path562" /><path
         d="m 467.547,18.9219 0.539,2.0195 c -3.184,0.8477 -3.574,2.75 -2.945,5.0899 l 20.398,76.1407 c 0.633,2.34 1.91,3.797 5.106,2.937 l 0.531,2.02 -22.129,5.93 -0.543,-2.02 c 3.187,-0.848 3.574,-2.758 2.945,-5.09 l -20.39,-76.1404 c -0.629,-2.3398 -1.918,-3.7969 -5.11,-2.9492 l -0.543,-2.0078 z"
         style="fill:none;stroke:#100f0d;stroke-width:2.677;stroke-linecap:butt;stroke-linejoin:miter;stroke-miterlimit:4;stroke-dasharray:none;stroke-opacity:1"
         id="path564" /><path
         d="m 579.582,82.9219 c 23.203,-1.6211 35.973,-15.7305 34.453,-37.3828 -1.515,-21.6485 -16.113,-33.8477 -39.32,-32.2305 -23.203,1.6211 -35.961,15.7305 -34.449,37.3828 1.511,21.6406 16.113,33.8594 39.316,32.2305 m 0.82,11.7773 C 550.445,96.7891 527.121,81.7188 525.023,51.7617 522.93,21.8008 543.934,3.62891 573.891,1.53125 603.852,-0.570313 627.18,14.5117 629.27,44.4688 c 2.109,29.9531 -18.903,48.1406 -48.868,50.2304"
         style="fill:#100f0d;fill-opacity:1;fill-rule:evenodd;stroke:none"
         id="path566" /><path
         d="m 579.582,82.9219 c 23.203,-1.6211 35.973,-15.7305 34.453,-37.3828 -1.515,-21.6485 -16.113,-33.8477 -39.32,-32.2305 -23.203,1.6211 -35.961,15.7305 -34.449,37.3828 1.511,21.6406 16.113,33.8594 39.316,32.2305 z m 0.82,11.7773 C 550.445,96.7891 527.121,81.7188 525.023,51.7617 522.93,21.8008 543.934,3.62891 573.891,1.53125 603.852,-0.570313 627.18,14.5117 629.27,44.4688 c 2.109,29.9531 -18.903,48.1406 -48.868,50.2304 z"
         style="fill:none;stroke:#100f0d;stroke-width:2.677;stroke-linecap:butt;stroke-linejoin:miter;stroke-miterlimit:4;stroke-dasharray:none;stroke-opacity:1"
         id="path568" /><path
         d="m 696.02,93.6211 c -0.813,0.5508 -1.661,1.2578 -1.797,1.9375 -0.266,1.3711 0.32,2.0117 2.879,2.5117 l -0.399,2.0507 -28.801,-5.6015 0.403,-2.0507 c 3.23,0.6328 4.422,-0.8985 4.883,-3.2891 l 15.039,-77.3711 c 0.457,-2.37891 -0.059,-4.25001 -3.293,-4.88672 l 0.39,-2.04297 20.449,3.98047 -0.39,2.05082 c -3.242,-0.6407 -4.434,0.8984 -4.883,3.289 L 686.984,83.7188 761.059,26.5 c 0.644,-0.5781 2.039,-1.3711 2.332,-2.9102 0.195,-1.0117 -0.926,-1.5898 -3.145,-2.0195 l 0.391,-2.0508 21.816,4.25 -0.39,2.0391 c -3.243,-0.6367 -4.434,0.9102 -4.883,3.3008 l -15.039,77.3596 c -0.469,2.39 0.058,4.25 3.293,4.89 l -0.403,2.039 -20.449,-3.976 0.402,-2.043 c 3.231,0.633 4.422,-0.91 4.883,-3.297 L 761.73,43.0703 761.391,43.0195 696.02,93.6211"
         style="fill:#100f0d;fill-opacity:1;fill-rule:nonzero;stroke:none"
         id="path570" /><path
         d="m 696.02,93.6211 c -0.813,0.5508 -1.661,1.2578 -1.797,1.9375 -0.266,1.3711 0.32,2.0117 2.879,2.5117 l -0.399,2.0507 -28.801,-5.6015 0.403,-2.0507 c 3.23,0.6328 4.422,-0.8985 4.883,-3.2891 l 15.039,-77.3711 c 0.457,-2.37891 -0.059,-4.25001 -3.293,-4.88672 l 0.39,-2.04297 20.449,3.98047 -0.39,2.05082 c -3.242,-0.6407 -4.434,0.8984 -4.883,3.289 L 686.984,83.7188 761.059,26.5 c 0.644,-0.5781 2.039,-1.3711 2.332,-2.9102 0.195,-1.0117 -0.926,-1.5898 -3.145,-2.0195 l 0.391,-2.0508 21.816,4.25 -0.39,2.0391 c -3.243,-0.6367 -4.434,0.9102 -4.883,3.3008 l -15.039,77.3596 c -0.469,2.39 0.058,4.25 3.293,4.89 l -0.403,2.039 -20.449,-3.976 0.402,-2.043 c 3.231,0.633 4.422,-0.91 4.883,-3.297 l 11.863,-61.0117 -0.339,-0.0508 z"
         style="fill:none;stroke:#100f0d;stroke-width:2.677;stroke-linecap:butt;stroke-linejoin:miter;stroke-miterlimit:4;stroke-dasharray:none;stroke-opacity:1"
         id="path572" /><path
         d="m 845.316,132.199 35.586,-28.23 -33.859,-16.5081 -1.727,44.7381 m 45.918,-35.9295 12.012,-9.5976 c 3.543,-2.9024 4.16,-3.3711 4.617,-4.3125 0.684,-1.3985 0.442,-2.4883 -2.05,-3.711 l 0.917,-1.8593 21.68,10.5703 -0.918,1.8789 c -3.582,-1.75 -3.965,-1.3672 -11.133,4.2226 l -60.242,47.4881 c -3.469,2.742 -5.402,3.93 -6.008,5.172 -0.613,1.25 -0.293,2.18 1.582,3.098 l -0.906,1.871 -22.785,-11.11 0.91,-1.878 c 1.563,0.769 3.27,0.429 3.731,-0.493 0.527,-1.097 0.273,-2.961 0.468,-7.308 l 2.5,-76.8127 c 0.223,-8.3789 -0.168,-9.168 -2.824,-10.4375 l 0.918,-1.8789 19.192,9.3594 -0.918,1.8671 c -1.868,-0.9179 -2.961,-0.6601 -3.489,0.4219 -0.605,1.25 -0.488,4.5781 -0.625,6.8399 l -0.781,15.0586 44.152,21.5507"
         style="fill:#100f0d;fill-opacity:1;fill-rule:evenodd;stroke:none"
         id="path574" /><path
         d="m 845.316,132.199 35.586,-28.23 -33.859,-16.5081 z m 45.918,-35.9295 12.012,-9.5976 c 3.543,-2.9024 4.16,-3.3711 4.617,-4.3125 0.684,-1.3985 0.442,-2.4883 -2.05,-3.711 l 0.917,-1.8593 21.68,10.5703 -0.918,1.8789 c -3.582,-1.75 -3.965,-1.3672 -11.133,4.2226 l -60.242,47.4881 c -3.469,2.742 -5.402,3.93 -6.008,5.172 -0.613,1.25 -0.293,2.18 1.582,3.098 l -0.906,1.871 -22.785,-11.11 0.91,-1.878 c 1.563,0.769 3.27,0.429 3.731,-0.493 0.527,-1.097 0.273,-2.961 0.468,-7.308 l 2.5,-76.8127 c 0.223,-8.3789 -0.168,-9.168 -2.824,-10.4375 l 0.918,-1.8789 19.192,9.3594 -0.918,1.8671 c -1.868,-0.9179 -2.961,-0.6601 -3.489,0.4219 -0.605,1.25 -0.488,4.5781 -0.625,6.8399 l -0.781,15.0586 z"
         style="fill:none;stroke:#100f0d;stroke-width:2.677;stroke-linecap:butt;stroke-linejoin:miter;stroke-miterlimit:4;stroke-dasharray:none;stroke-opacity:1"
         id="path576" /><path
         d="m 911.918,188.539 1.316,-1.617 c 2.559,2.078 4.329,1.269 5.86,-0.613 l 49.601,-61.25 c 1.524,-1.887 1.942,-3.789 -0.625,-5.86 l 1.317,-1.621 59.903,48.504 c 3.37,2.738 5.37,3.02 7.12,0.859 l 1.62,1.309 -12.9,15.922 -1.61,-1.313 c 2.29,-2.828 1.66,-5.359 -1.45,-7.871 l -45.328,-36.707 -45.879,56.66 c -1.965,2.418 -2.383,4.329 0.176,6.411 l -1.309,1.609 -17.812,-14.422"
         style="fill:#100f0d;fill-opacity:1;fill-rule:nonzero;stroke:none"
         id="path578" /><path
         d="m 911.918,188.539 1.316,-1.617 c 2.559,2.078 4.329,1.269 5.86,-0.613 l 49.601,-61.25 c 1.524,-1.887 1.942,-3.789 -0.625,-5.86 l 1.317,-1.621 59.903,48.504 c 3.37,2.738 5.37,3.02 7.12,0.859 l 1.62,1.309 -12.9,15.922 -1.61,-1.313 c 2.29,-2.828 1.66,-5.359 -1.45,-7.871 l -45.328,-36.707 -45.879,56.66 c -1.965,2.418 -2.383,4.329 0.176,6.411 l -1.309,1.609 z"
         style="fill:none;stroke:#100f0d;stroke-width:2.677;stroke-linecap:butt;stroke-linejoin:miter;stroke-miterlimit:4;stroke-dasharray:none;stroke-opacity:1"
         id="path580" /><path
         d="m 1067.77,216.57 c 1.94,-1.461 2.8,-3.199 0.83,-5.832 l 1.66,-1.258 46.79,62.11 c 2.62,3.469 4.5,4.23 6.71,2.558 l 1.25,1.661 -16.91,12.746 -1.25,-1.66 c 3.47,-2.61 3.36,-5.364 0.43,-9.239 l -34.89,-46.301 -23.58,17.754 21.43,28.43 c 2.92,3.875 5.04,4.668 7.81,2.578 l 1.25,1.668 -16.77,12.637 -1.25,-1.66 c 2.91,-2.196 2.1,-5.282 -0.41,-8.614 l -21.2,-28.144 -21.9,16.504 32.58,43.262 c 3.15,4.152 5.61,4.257 7.96,2.48 l 1.26,1.66 -15.81,11.914 -1.25,-1.66 c 2.08,-1.57 2.14,-2.93 -1.4,-7.644 l -43.774,-58.086 1.652,-1.25 c 1.992,2.636 3.892,2.285 5.842,0.82 l 62.94,-47.434"
         style="fill:#100f0d;fill-opacity:1;fill-rule:nonzero;stroke:none"
         id="path582" /><path
         d="m 1067.77,216.57 c 1.94,-1.461 2.8,-3.199 0.83,-5.832 l 1.66,-1.258 46.79,62.11 c 2.62,3.469 4.5,4.23 6.71,2.558 l 1.25,1.661 -16.91,12.746 -1.25,-1.66 c 3.47,-2.61 3.36,-5.364 0.43,-9.239 l -34.89,-46.301 -23.58,17.754 21.43,28.43 c 2.92,3.875 5.04,4.668 7.81,2.578 l 1.25,1.668 -16.77,12.637 -1.25,-1.66 c 2.91,-2.196 2.1,-5.282 -0.41,-8.614 l -21.2,-28.144 -21.9,16.504 32.58,43.262 c 3.15,4.152 5.61,4.257 7.96,2.48 l 1.26,1.66 -15.81,11.914 -1.25,-1.66 c 2.08,-1.57 2.14,-2.93 -1.4,-7.644 l -43.774,-58.086 1.652,-1.25 c 1.992,2.636 3.892,2.285 5.842,0.82 z"
         style="fill:none;stroke:#100f0d;stroke-width:2.677;stroke-linecap:butt;stroke-linejoin:miter;stroke-miterlimit:4;stroke-dasharray:none;stroke-opacity:1"
         id="path584" /></g></g></svg>
