<svg width="758" height="758" xmlns="http://www.w3.org/2000/svg" xmlns:xlink="http://www.w3.org/1999/xlink" overflow="hidden"><defs><clipPath id="clip0"><rect x="-1" y="-1" width="758" height="758"/></clipPath></defs><g clip-path="url(#clip0)" transform="translate(1 1)"><path d="M455.316 329.71 552.848 294.539 623.841 491.41 526.309 526.581Z" fill="#FFFFFF" fill-rule="evenodd"/><rect x="270" y="335" width="104" height="209" fill="#FFFFFF"/><rect x="105" y="344" width="103" height="209" fill="#FFFFFF"/><path d="M127.234 472.182 127.234 507.818 194.766 507.818 194.766 472.182ZM127.234 373.758 127.234 409.394 194.766 409.394 194.766 373.758ZM96 182 226 182 226 574 96 574Z" fill-rule="evenodd"/><path d="M287.234 472.182 287.234 507.818 354.766 507.818 354.766 472.182ZM287.234 373.758 287.234 409.394 354.766 409.394 354.766 373.758ZM256 182 386 182 386 574 256 574Z" fill-rule="evenodd"/><path d="M523.412 467.59 536.719 500.582 599.56 475.234 586.253 442.243ZM486.658 376.471 499.965 409.462 562.806 384.115 549.499 351.123ZM385.987 210.669 506.956 161.875 653.338 524.781 532.369 573.575Z" fill-rule="evenodd"/></g></svg>