<svg width="215" height="62" xmlns="http://www.w3.org/2000/svg" xmlns:xlink="http://www.w3.org/1999/xlink" overflow="hidden"><defs><clipPath id="clip0"><rect x="591" y="312" width="215" height="62"/></clipPath></defs><g clip-path="url(#clip0)" transform="translate(-591 -312)"><text font-family="Cambria Math,Cambria Math_MSFontService,sans-serif" font-weight="400" font-size="24" transform="translate(595.713 350)">𝑅<tspan font-size="18" x="14.92" y="5">𝑡</tspan><tspan x="30.7134" y="0">=</tspan><tspan x="122.2" y="-18">𝐼</tspan><tspan font-size="18" x="129.96" y="-13">𝑡</tspan></text><path d="M4.11328-15.5508 9.82031-6.89062 9.82031-6 3.42188 2.78906 11.1328 2.78906C11.6172 2.78906 11.9824 2.75781 12.2285 2.69531 12.4746 2.63281 12.6855 2.53711 12.8613 2.4082 13.0371 2.2793 13.1973 2.09961 13.3418 1.86914 13.4863 1.63867 13.625 1.32031 13.7578 0.914062 13.8906 0.507812 14.0156-0.0234375 14.1328-0.679688L15.5039-0.679688 15.1641 5.03906 0.304688 5.03906 0.304688 4.38281 7.54688-5.56641 0.75-16.1016 0.75-16.7695 15.2227-16.7695 15.2227-11.5547 13.957-11.5547C13.7617-12.2969 13.5762-12.9023 13.4004-13.3711 13.2246-13.8398 13.0449-14.2109 12.8613-14.4844 12.6777-14.7578 12.4902-14.9668 12.2988-15.1113 12.1074-15.2559 11.8867-15.3652 11.6367-15.4395 11.3867-15.5137 11.0547-15.5508 10.6406-15.5508Z" transform="translate(651.093 366)"/><path d="M792.422 349.082C794.703 349.683 796.455 350.982 797.678 352.978 798.9 354.974 799.512 357.382 799.512 360.203 799.512 363.031 798.902 365.439 797.683 367.427 796.465 369.416 794.711 370.711 792.422 371.312L792.141 370.41C793.945 369.808 795.287 368.621 796.166 366.847 797.045 365.074 797.484 362.82 797.484 360.086 797.484 357.445 797.047 355.252 796.172 353.505 795.297 351.759 793.941 350.586 792.105 349.984ZM708.993 349.082 709.309 349.984C707.481 350.586 706.127 351.759 705.248 353.505 704.37 355.252 703.93 357.445 703.93 360.086 703.93 362.82 704.37 365.074 705.248 366.847 706.127 368.621 707.469 369.808 709.274 370.41L708.993 371.312C706.703 370.711 704.95 369.416 703.731 367.427 702.512 365.439 701.903 363.031 701.903 360.203 701.903 357.382 702.514 354.974 703.737 352.978 704.959 350.982 706.711 349.683 708.993 349.082Z" fill="#836967" fill-rule="evenodd"/><text font-family="Cambria Math,Cambria Math_MSFontService,sans-serif" font-weight="400" font-size="24" transform="translate(709.753 367)">𝑤<tspan font-size="18" x="16.14" y="5">𝑠</tspan><tspan x="31.3267" y="0">⋅</tspan><tspan x="43.4933" y="0">𝐼</tspan><tspan font-size="18" x="51.2533" y="5">𝑡</tspan><tspan font-size="18" x="59.3867" y="5">−</tspan><tspan font-size="18" x="72.0533" y="5">𝑠</tspan><tspan font-size="18" x="-41.6534" y="-9">𝑡</tspan><tspan font-size="18" x="-41.6534" y="6">𝑠</tspan><tspan font-size="18" x="-32.7933" y="6">=</tspan><tspan font-size="18" x="-20.1267" y="6">0</tspan></text><path d="M651 342.229 701.333 342.229 751.667 342.229 802 342.229 802 344.229 751.667 344.229 701.333 344.229 651 344.229Z" fill="#836967" fill-rule="evenodd"/></g></svg>