<svg width="757" height="758" xmlns="http://www.w3.org/2000/svg" xmlns:xlink="http://www.w3.org/1999/xlink" overflow="hidden"><defs><clipPath id="clip0"><rect x="-2" y="-1" width="757" height="758"/></clipPath></defs><g clip-path="url(#clip0)" transform="translate(2 1)"><path d="M456.67 102.133 569.008 214.288 568.948 214.377 456.581 102.193ZM234.523 96 450.378 96 456.581 102.193 456.335 102.359C453.422 105.267 451.62 109.285 451.62 113.722L451.62 203.302C451.62 212.177 458.827 219.373 467.718 219.373L557.37 219.373C561.816 219.373 565.84 217.574 568.753 214.665L568.948 214.377 573 218.422 573 608.561C573 636.97 549.932 660 521.477 660L234.523 660C206.068 660 183 636.97 183 608.561L183 147.439C183 119.03 206.068 96 234.523 96Z" stroke="#000000" stroke-width="24.3333" stroke-miterlimit="8" fill="none" fill-rule="evenodd"/><rect x="261" y="309" width="234" height="40" stroke="#000000" stroke-width="14" stroke-miterlimit="8"/><rect x="261" y="350" width="117" height="49" stroke="#000000" stroke-width="14" stroke-miterlimit="8" fill="#FFFFFF"/><rect x="378" y="350" width="117" height="49" stroke="#000000" stroke-width="14" stroke-miterlimit="8" fill="#FFFFFF"/><rect x="261" y="405" width="117" height="49" stroke="#000000" stroke-width="14" stroke-miterlimit="8" fill="#FFFFFF"/><rect x="378" y="405" width="117" height="49" stroke="#000000" stroke-width="14" stroke-miterlimit="8" fill="#FFFFFF"/><rect x="261" y="460" width="117" height="49" stroke="#000000" stroke-width="14" stroke-miterlimit="8" fill="#FFFFFF"/><rect x="378" y="460" width="117" height="49" stroke="#000000" stroke-width="14" stroke-miterlimit="8" fill="#FFFFFF"/><rect x="261" y="514" width="117" height="49" stroke="#000000" stroke-width="14" stroke-miterlimit="8" fill="#FFFFFF"/><rect x="378" y="514" width="117" height="49" stroke="#000000" stroke-width="14" stroke-miterlimit="8" fill="#FFFFFF"/></g></svg>