<svg width="758" height="758" xmlns="http://www.w3.org/2000/svg" xmlns:xlink="http://www.w3.org/1999/xlink" overflow="hidden"><defs><clipPath id="clip0"><rect x="-1" y="-1" width="758" height="758"/></clipPath></defs><g clip-path="url(#clip0)" transform="translate(1 1)"><path d="M468.062 63.5035 595.955 191.567 595.887 191.668 467.961 63.5718ZM215.157 56.5001 460.899 56.5001 467.961 63.5718 467.682 63.7606C464.365 67.0814 462.314 71.669 462.314 76.7364L462.314 179.022C462.314 189.156 470.519 197.372 480.64 197.372L582.706 197.372C587.767 197.372 592.348 195.318 595.665 191.998L595.887 191.668 600.5 196.287 600.5 641.765C600.5 674.203 574.238 700.5 541.843 700.5L215.157 700.5C182.762 700.5 156.5 674.203 156.5 641.765L156.5 115.235C156.5 82.7967 182.762 56.5001 215.157 56.5001Z" stroke="#000000" stroke-width="28.6667" stroke-miterlimit="8" fill="none" fill-rule="evenodd"/><rect x="249.5" y="297.5" width="258" height="54" stroke="#000000" stroke-width="13" stroke-miterlimit="8"/><rect x="249.5" y="357.5" width="129" height="54" stroke="#000000" stroke-width="13" stroke-miterlimit="8" fill="#FFFFFF"/><rect x="378.5" y="357.5" width="129" height="54" stroke="#000000" stroke-width="13" stroke-miterlimit="8" fill="#FFFFFF"/><rect x="249.5" y="412.5" width="129" height="54" stroke="#000000" stroke-width="13" stroke-miterlimit="8" fill="#FFFFFF"/><rect x="378.5" y="412.5" width="129" height="54" stroke="#000000" stroke-width="13" stroke-miterlimit="8" fill="#FFFFFF"/><rect x="249.5" y="467.5" width="129" height="54" stroke="#000000" stroke-width="13" stroke-miterlimit="8" fill="#FFFFFF"/><rect x="378.5" y="467.5" width="129" height="54" stroke="#000000" stroke-width="13" stroke-miterlimit="8" fill="#FFFFFF"/><rect x="249.5" y="521.5" width="129" height="54" stroke="#000000" stroke-width="13" stroke-miterlimit="8" fill="#FFFFFF"/><rect x="378.5" y="521.5" width="129" height="54" stroke="#000000" stroke-width="13" stroke-miterlimit="8" fill="#FFFFFF"/></g></svg>